<?xml version="1.0" encoding="utf-8"?>
<!-- Generator: Adobe Illustrator 22.0.1, SVG Export Plug-In . SVG Version: 6.00 Build 0)  -->
<svg version="1.2" baseProfile="tiny" id="Layer_1" xmlns="http://www.w3.org/2000/svg" xmlns:xlink="http://www.w3.org/1999/xlink"
	 x="0px" y="0px" viewBox="0 0 337.4 337.4" xml:space="preserve">
<polygon fill="#1572B6" points="47.1,303.7 20,0 317.4,0 290.4,303.6 168.5,337.4 "/>
<polygon fill="#33A9DC" points="168.7,311.6 267.2,284.3 290.3,24.9 168.7,24.9 "/>
<g>
	<polygon fill="#FFFFFF" points="168.7,134.9 218,134.9 221.4,96.7 168.7,96.7 168.7,59.5 168.9,59.5 262.1,59.5 261.2,69.5 
		252.1,172.1 168.7,172.1 	"/>
	<polygon fill="#EBEBEB" points="168.9,231.6 168.8,231.6 127.3,220.4 124.7,190.7 104.5,190.7 87.3,190.7 92.5,249.2 168.8,270.4 
		168.9,270.3 	"/>
	<polygon fill="#FFFFFF" points="214.8,170.5 210.4,220.4 168.8,231.6 168.8,270.3 245.2,249.2 245.7,242.9 252.2,170.5 	"/>
	<polygon fill="#EBEBEB" points="168.9,59.5 168.9,82.6 168.9,96.6 168.9,96.7 79,96.7 79,96.7 78.9,96.7 78.2,88.4 76.5,69.5 
		75.6,59.5 	"/>
	<polygon fill="#EBEBEB" points="168.7,134.9 168.7,158 168.7,172 168.7,172.1 127.9,172.1 127.9,172.1 127.8,172.1 127,163.7 
		125.3,144.9 124.4,134.9 	"/>
</g>
</svg>
