<?xml version="1.0" encoding="utf-8"?>
<!-- Generator: Adobe Illustrator 22.0.1, SVG Export Plug-In . SVG Version: 6.00 Build 0)  -->
<svg version="1.2" baseProfile="tiny" id="Camada_1"
	 xmlns="http://www.w3.org/2000/svg" xmlns:xlink="http://www.w3.org/1999/xlink" x="0px" y="0px" viewBox="0 0 300 69"
	 xml:space="preserve">
<g>
	<g>
		<g>
			<path fill="#17ADDC" d="M81.1,18.5V0.5h10.1v1.9h-7.5v5.8H90v1.9h-6.3v6.5h8.1v1.9H81.1z"/>
			<path fill="#17ADDC" d="M98.4,19c-1.2,0-2.8-0.3-4.7-0.8v-2.5c2,0.9,3.7,1.4,5,1.4c1,0,1.8-0.3,2.4-0.8c0.6-0.5,0.9-1.2,0.9-2.1
				c0-0.7-0.2-1.3-0.6-1.8c-0.4-0.5-1.1-1.1-2.2-1.7L98.1,10c-1.5-0.9-2.6-1.7-3.3-2.5c-0.6-0.8-0.9-1.7-0.9-2.7
				c0-1.4,0.5-2.5,1.5-3.4c1-0.9,2.3-1.3,3.9-1.3c1.4,0,2.9,0.2,4.4,0.7V3c-1.9-0.7-3.3-1.1-4.3-1.1c-0.9,0-1.6,0.2-2.2,0.7
				c-0.6,0.5-0.9,1.1-0.9,1.8C96.3,5,96.5,5.5,97,6c0.4,0.5,1.2,1,2.3,1.7l1.3,0.7c1.6,0.9,2.7,1.7,3.3,2.5c0.6,0.8,0.9,1.7,0.9,2.8
				c0,1.6-0.6,2.8-1.7,3.8C101.9,18.5,100.3,19,98.4,19z"/>
			<path fill="#17ADDC" d="M116.3,19c-2.8,0-5-0.8-6.5-2.5c-1.5-1.6-2.3-4-2.3-7c0-3,0.8-5.3,2.3-7c1.6-1.7,3.8-2.5,6.6-2.5
				c1.6,0,3.5,0.3,5.7,0.8v2.4c-2.5-0.9-4.4-1.3-5.7-1.3c-2,0-3.5,0.7-4.6,2c-1.1,1.3-1.6,3.2-1.6,5.6c0,2.3,0.6,4.1,1.7,5.5
				c1.1,1.3,2.7,2,4.7,2c1.7,0,3.5-0.5,5.5-1.6v2.2C120.4,18.5,118.5,19,116.3,19z"/>
			<path fill="#17ADDC" d="M133.4,19c-2.5,0-4.5-0.9-6.1-2.6c-1.5-1.7-2.3-4-2.3-6.9c0-2.9,0.8-5.2,2.3-6.9c1.5-1.7,3.6-2.6,6.1-2.6
				c2.6,0,4.6,0.9,6.1,2.6c1.5,1.7,2.3,4,2.3,6.9c0,2.9-0.8,5.2-2.3,7C138.1,18.1,136.1,19,133.4,19z M133.5,17.1
				c1.8,0,3.3-0.7,4.3-2c1-1.3,1.5-3.2,1.5-5.6c0-2.4-0.5-4.2-1.5-5.5c-1-1.3-2.4-2-4.2-2c-1.8,0-3.2,0.7-4.2,2
				c-1,1.3-1.5,3.2-1.5,5.6c0,2.4,0.5,4.2,1.5,5.6C130.3,16.4,131.7,17.1,133.5,17.1z"/>
			<path fill="#17ADDC" d="M145.8,18.5V0.5h2.6v16.2h8.1v1.9H145.8z"/>
			<path fill="#17ADDC" d="M171.3,18.5l-2-5h-7.7l-2,5h-2.4l7.2-18.1h2.5l7.1,18.1H171.3z M168.6,11.6l-3.1-7.8l-3.1,7.8H168.6z"/>
		</g>
		<g>
			<path fill="#17ADDC" d="M85.7,44c-1.2,0-2.8-0.3-4.7-0.8v-2.5c2,0.9,3.7,1.4,5,1.4c1,0,1.8-0.3,2.4-0.8c0.6-0.5,0.9-1.2,0.9-2.1
				c0-0.7-0.2-1.3-0.6-1.8c-0.4-0.5-1.1-1.1-2.2-1.7L85.4,35c-1.5-0.9-2.6-1.7-3.3-2.5c-0.6-0.8-0.9-1.7-0.9-2.7
				c0-1.4,0.5-2.5,1.5-3.4c1-0.9,2.3-1.3,3.9-1.3c1.4,0,2.9,0.2,4.4,0.7v2.3c-1.9-0.7-3.3-1.1-4.3-1.1c-0.9,0-1.6,0.2-2.2,0.7
				c-0.6,0.5-0.9,1.1-0.9,1.8c0,0.6,0.2,1.1,0.6,1.6c0.4,0.5,1.2,1,2.3,1.7l1.3,0.7c1.6,0.9,2.7,1.7,3.3,2.5
				c0.6,0.8,0.9,1.7,0.9,2.8c0,1.6-0.6,2.8-1.7,3.8C89.2,43.5,87.6,44,85.7,44z"/>
			<path fill="#17ADDC" d="M95.9,43.5V25.5H106v1.9h-7.5v5.8h6.3v1.9h-6.3v6.5h8.1v1.9H95.9z"/>
			<path fill="#17ADDC" d="M117.5,44c-2.8,0-5-0.8-6.5-2.5c-1.5-1.6-2.3-4-2.3-7c0-3,0.8-5.3,2.3-7c1.6-1.7,3.8-2.5,6.6-2.5
				c1.6,0,3.5,0.3,5.7,0.8v2.4c-2.5-0.9-4.4-1.3-5.7-1.3c-2,0-3.5,0.7-4.6,2c-1.1,1.3-1.6,3.2-1.6,5.6c0,2.3,0.6,4.1,1.7,5.5
				c1.1,1.3,2.7,2,4.7,2c1.7,0,3.5-0.5,5.5-1.6v2.2C121.5,43.5,119.6,44,117.5,44z"/>
			<path fill="#17ADDC" d="M127.1,25.5h2.6v11.4c0,1.8,0.3,3.1,1,4c0.7,0.8,1.7,1.2,3.2,1.2c1.4,0,2.4-0.4,3-1.2
				c0.6-0.8,0.9-2.1,0.9-4V25.5h2.2v11.5c0,2.5-0.5,4.3-1.5,5.4c-1,1.1-2.6,1.7-4.8,1.7c-2.3,0-3.9-0.6-5-1.7
				c-1.1-1.2-1.6-3-1.6-5.4V25.5z"/>
			<path fill="#17ADDC" d="M144.8,43.5V25.5h2.5l9.1,14v-14h2.2v18.1h-2.5l-9.1-14v14H144.8z"/>
			<path fill="#17ADDC" d="M163.6,43.5V25.5h6c1.8,0,3.2,0.2,4.3,0.6c1.1,0.4,2.1,1.1,2.9,2c1.3,1.5,1.9,3.5,1.9,6
				c0,3-0.8,5.3-2.4,7c-1.6,1.7-3.8,2.5-6.7,2.5H163.6z M166.1,41.6h3.3c2.3,0,4-0.6,5-1.9c1.1-1.3,1.6-3.1,1.6-5.4
				c0-2.1-0.5-3.8-1.6-5c-0.6-0.7-1.4-1.2-2.2-1.5c-0.9-0.3-2.2-0.4-3.9-0.4h-2.1V41.6z"/>
			<path fill="#17ADDC" d="M194.4,43.5l-2-5h-7.7l-2,5h-2.4l7.2-18.1h2.5l7.1,18.1H194.4z M191.7,36.6l-3.1-7.8l-3.1,7.8H191.7z
				 M187.1,23.9L190,20h2.8l-3.9,3.9H187.1z"/>
			<path fill="#17ADDC" d="M200.1,43.5V25.5h5.5c1.7,0,3.1,0.4,4,1.1c0.9,0.8,1.4,1.9,1.4,3.3c0,2.4-1.2,4.1-3.7,5.1l6,8.5h-3.2
				l-5.1-7.6h-2.4v7.6H200.1z M202.6,34h0.8c3.2,0,4.8-1.3,4.8-3.8c0-1.9-1.4-2.8-4.1-2.8h-1.6V34z"/>
			<path fill="#17ADDC" d="M216.1,43.5V25.5h2.6v18.1H216.1z"/>
			<path fill="#17ADDC" d="M235.5,43.5l-2-5h-7.7l-2,5h-2.4l7.2-18.1h2.5l7.1,18.1H235.5z M232.7,36.6l-3.1-7.8l-3.1,7.8H232.7z"/>
		</g>
		<g>
			<path fill="#17ADDC" d="M81.1,68.5V50.5h6c1.8,0,3.2,0.2,4.3,0.6c1.1,0.4,2.1,1.1,2.9,2c1.3,1.5,1.9,3.5,1.9,6c0,3-0.8,5.3-2.4,7
				c-1.6,1.7-3.8,2.5-6.7,2.5H81.1z M83.6,66.6h3.3c2.3,0,4-0.6,5-1.9c1.1-1.3,1.6-3.1,1.6-5.4c0-2.1-0.5-3.8-1.6-5
				c-0.6-0.7-1.4-1.2-2.2-1.5c-0.9-0.3-2.2-0.4-3.9-0.4h-2.1V66.6z"/>
			<path fill="#17ADDC" d="M111.9,68.5l-2-5h-7.7l-2,5h-2.4l7.2-18.1h2.5l7.1,18.1H111.9z M109.2,61.6l-3.1-7.8l-3.1,7.8H109.2z"/>
			<path fill="#17ADDC" d="M117.6,68.5V50.5h3.6l5,14l5.2-14h3.2v18.1h-2.4V53.8l-5,13.5h-2.5l-4.8-13.5v14.7H117.6z"/>
			<path fill="#17ADDC" d="M139.3,68.5V50.5h2.6v18.1H139.3z"/>
			<path fill="#17ADDC" d="M158.7,68.5l-2-5h-7.7l-2,5h-2.4l7.2-18.1h2.5l7.1,18.1H158.7z M149,49c0-1,0.3-1.7,0.6-2.1
				c0.4-0.5,0.9-0.7,1.6-0.7c0.6,0,1.1,0.2,1.6,0.5l0.7,0.5c0.5,0.3,0.8,0.4,1.1,0.4c0.3,0,0.5-0.1,0.7-0.3c0.2-0.2,0.3-0.6,0.3-1
				h1.5c0,1-0.3,1.7-0.6,2.1c-0.4,0.5-0.9,0.7-1.6,0.7c-0.6,0-1.1-0.2-1.6-0.5l-0.7-0.5c-0.5-0.3-0.8-0.4-1.1-0.4
				c-0.3,0-0.5,0.1-0.7,0.3c-0.2,0.2-0.3,0.6-0.3,1H149z M156,61.6l-3.1-7.8l-3.1,7.8H156z"/>
			<path fill="#17ADDC" d="M171.6,69c-2.5,0-4.5-0.9-6.1-2.6c-1.5-1.7-2.3-4-2.3-6.9c0-2.9,0.8-5.2,2.3-6.9c1.5-1.7,3.6-2.6,6.1-2.6
				c2.6,0,4.6,0.9,6.1,2.6c1.5,1.7,2.3,4,2.3,6.9c0,2.9-0.8,5.2-2.3,7C176.3,68.1,174.2,69,171.6,69z M171.6,67.1
				c1.8,0,3.3-0.7,4.3-2c1-1.3,1.5-3.2,1.5-5.6c0-2.4-0.5-4.2-1.5-5.5c-1-1.3-2.4-2-4.2-2c-1.8,0-3.2,0.7-4.2,2
				c-1,1.3-1.5,3.2-1.5,5.6c0,2.4,0.5,4.2,1.5,5.6C168.5,66.4,169.9,67.1,171.6,67.1z"/>
			<path fill="#17ADDC" d="M192.2,68.5V50.5h6c1.8,0,3.2,0.2,4.3,0.6c1.1,0.4,2.1,1.1,2.9,2c1.3,1.5,1.9,3.5,1.9,6
				c0,3-0.8,5.3-2.4,7c-1.6,1.7-3.8,2.5-6.7,2.5H192.2z M194.7,66.6h3.3c2.3,0,4-0.6,5-1.9c1.1-1.3,1.6-3.1,1.6-5.4
				c0-2.1-0.5-3.8-1.6-5c-0.6-0.7-1.4-1.2-2.2-1.5c-0.9-0.3-2.2-0.4-3.9-0.4h-2.1V66.6z"/>
			<path fill="#17ADDC" d="M211.1,68.5V50.5h10.1v1.9h-7.5v5.8h6.3v1.9h-6.3v6.5h8.1v1.9H211.1z"/>
			<path fill="#17ADDC" d="M246.7,68.1c-2.2,0.6-4.1,0.9-5.7,0.9c-2.9,0-5.1-0.8-6.6-2.5c-1.5-1.6-2.3-4-2.3-7c0-3,0.8-5.3,2.3-7
				c1.6-1.7,3.7-2.5,6.5-2.5c1.8,0,3.8,0.3,5.7,0.8v2.4c-2.5-0.8-4.4-1.3-5.7-1.3c-2,0-3.5,0.7-4.5,2c-1.1,1.3-1.6,3.2-1.6,5.6
				c0,2.4,0.6,4.2,1.7,5.6c1.2,1.3,2.8,2,4.9,2c0.9,0,1.8-0.2,2.8-0.5v-5.9h2.6V68.1z"/>
			<path fill="#17ADDC" d="M258.7,69c-2.5,0-4.5-0.9-6.1-2.6c-1.5-1.7-2.3-4-2.3-6.9c0-2.9,0.8-5.2,2.3-6.9c1.5-1.7,3.6-2.6,6.1-2.6
				c2.6,0,4.6,0.9,6.1,2.6c1.5,1.7,2.3,4,2.3,6.9c0,2.9-0.8,5.2-2.3,7C263.4,68.1,261.3,69,258.7,69z M258.8,67.1
				c1.8,0,3.3-0.7,4.3-2c1-1.3,1.5-3.2,1.5-5.6c0-2.4-0.5-4.2-1.5-5.5c-1-1.3-2.4-2-4.2-2c-1.8,0-3.2,0.7-4.2,2
				c-1,1.3-1.5,3.2-1.5,5.6c0,2.4,0.5,4.2,1.5,5.6C255.6,66.4,257,67.1,258.8,67.1z"/>
			<path fill="#17ADDC" d="M271.1,68.5V50.5h10.1v1.9h-7.5v5.8h6.3v1.9h-6.3v6.5h8.1v1.9H271.1z"/>
			<path fill="#17ADDC" d="M288.5,69c-1.2,0-2.8-0.3-4.7-0.8v-2.5c2,0.9,3.7,1.4,5,1.4c1,0,1.8-0.3,2.4-0.8c0.6-0.5,0.9-1.2,0.9-2.1
				c0-0.7-0.2-1.3-0.6-1.8c-0.4-0.5-1.1-1.1-2.2-1.7l-1.2-0.7c-1.5-0.9-2.6-1.7-3.3-2.5c-0.6-0.8-0.9-1.7-0.9-2.7
				c0-1.4,0.5-2.5,1.5-3.4c1-0.9,2.3-1.3,3.9-1.3c1.4,0,2.9,0.2,4.4,0.7v2.3c-1.9-0.7-3.3-1.1-4.3-1.1c-0.9,0-1.6,0.2-2.2,0.7
				c-0.6,0.5-0.9,1.1-0.9,1.8c0,0.6,0.2,1.1,0.6,1.6c0.4,0.5,1.2,1,2.3,1.7l1.3,0.7c1.6,0.9,2.7,1.7,3.3,2.5
				c0.6,0.8,0.9,1.7,0.9,2.8c0,1.6-0.6,2.8-1.7,3.8C291.9,68.5,290.4,69,288.5,69z"/>
		</g>
	</g>
	<g>
		<path fill="#17ADDC" d="M68.2,53.2c-1.3-1-2.4-2.1-3.4-3.3c-0.7-0.8-1.8-1.1-2.7-1.6c-0.7-0.4-1.6-0.6-2.1-1.1
			c-0.9-0.9-1.4-2-1.1-3.3c0.2-0.8,0.8-1.2,1.3-1.7c0-0.5,0-0.9,0-1.4c-0.3-1.1-1.3-1.6-2.1-2c-0.8-0.4-1.7-0.6-2.6-0.9
			c-0.3-0.1-0.6,0-1,0.2c-0.4,0.3-0.9,0.7-1.6,0.5c-0.1-0.2-0.1-0.4-0.2-0.7c-1.2,0-2.3,1.1-3.6,0.6c-0.1-0.3-0.2-0.5,0.2-0.6
			c0.4-0.1,0.8-0.5,1.2-0.3c1.6-1.1,1.9-3.4,4.2-4.2c0.1,0,0.6,0,1.2,0c0-0.3,0-0.6,0-0.9c-0.6-0.7-1.4-0.9-2.3-0.9
			c-0.8,0-1.7,0.3-2.5-0.3c-0.2,0.2-0.4,0.4-0.8,0.2c0-0.2,0-0.5,0-0.8c0.4-0.4,0.6,0,0.8,0.2c0.1-0.1,0.2-0.2,0.2-0.3
			c0.3-2.1-0.4-4.1-1.2-6c-0.5-1.2-1.2-2.5-2.3-3.4c-0.9-0.7-1.6-1.6-2.5-2.3c-1.8-1.3-3.4-1.3-5.3-0.3c-0.4,0.2-0.9,0.4-1.3,0.6
			c-0.3,0.2-0.6,0.2-1,0c0.6-0.7,1.3-1.3,2.2-1.6c1.3-0.6,2.5-1.5,4-1.8c0.2,0,0.3-0.3,0.4-0.2c1.2,0.2,2.3-0.6,3.5-0.4
			c0.7,0.1,1.1-0.4,1.8-0.4c1.5,0,2.9,0.3,4.3,0.6c0.8,0.2,1.6,0,2.5,0.4c0.4,0.2,0.9,0.4,1.4,0.4c0.2,0.3,0.4,0.7,0.6,1.1
			c-0.6,0.3-1.1,0.6-1.7,0.9c-1.5,0.1-2.4,0.4-3.6,1.7c0.5,0.9-0.5,1.3-0.7,2.2c0.8,0.1,1.5,0.2,2.2-0.3c0.8,0.4,1.1,1.1,1.4,1.8
			c-0.4,0-0.8,0-1.3-0.3c-0.4-0.2-1,0-1.5,0c0,0.4,0,0.6,0,0.9c1,1,2.2,1.9,3.7,2.3c0.5-1.3-0.8-1.9-0.9-2.8c0.9,0.1,1.7,0,2.5-0.5
			c0.3,0.4,0.6,0.8,1,1.3c0-0.1-0.1,0.1,0,0.2c1,1.4,0.7,3.1,0.7,4.6c0,0.8-0.4,1.6-0.7,2.3c-0.3,0.6-0.4,1.3-0.3,2.1
			c0.7,0,1.4,0,2.3,0c1.8-0.6,2.2-2.5,2.9-4.1c0.4-1,0.3-2,0.3-3c0.1-1.9-0.2-3.7-0.9-5.4c-0.3-0.6,0-1.3-0.1-1.9
			c0.9-0.4,1.3-1.6,2.5-1.6c1,0,1.7-1.2,2.9-0.6c1.3-1.6,3.3-1.9,4.9-3c0.3,1.4,0.5,29.9,0.2,43.3c-0.2,0.3-0.7,0-1,0.3
			c0.1,0.4,0.4,0.5,0.6,0.7c-0.8,1.7-1.3,3.5-2.7,4.9c-0.2-0.3-0.4-0.6-0.6-0.8c-0.2,0-0.5-0.1-0.8,0.1c0,0.3,0,0.5,0,0.8
			c0.2,0.3,0.7,0,0.9,0.2c0.3,0.6-0.3,0.7-0.4,1c-0.5,0.1-0.8,0-1.1-0.3c-0.6,0.5,0.3,0.7,0.1,1.3c-0.3,0.5-1.2,0.6-1.5,1.1
			c-0.5,0.1-0.6-0.4-1-0.3c-0.8,1.4-2.3,1.9-3.8,2.4c-0.3-0.2-0.6-0.5-0.8-0.7c-0.2,0-0.3,0-0.4,0.1c-0.1,0.5-0.5,0.6-0.9,0.9
			c-0.4,0.2-0.8,0.1-1.2,0.1c-0.3,0-1.6-0.1-1.8,0c-0.3-0.2,0-0.7-0.3-1c-0.3-0.5-0.9-0.5-1.4-0.9c-0.5,0.6-0.1,1.2-0.3,1.8
			c-0.6,0.3-1,0.1-1.4-0.5c-0.4-0.7-0.7-1.4-1.4-1.9c0-0.5,0-1.1,0-1.8c0.2-0.8,1-1.4,1.7-1.9c0.2,0,0.4,0,0.6,0
			c0.2-0.3,0.2-0.5,0-0.6c-0.3,0.2-0.5,0.3-0.6,0.7c-0.6,0-1.3,0-1.9,0c-0.8-0.5-0.7-1-0.3-1.7c-0.5-0.6-0.1-1.3-0.3-2
			c0.4-0.4,0.9,0,1.5-0.3c-0.5-0.8-0.4-1.6-0.4-2.5c1-1.7,2.6-2.8,3.8-4.1c0.2-1.2,0.7-2.2,1.6-3c0.5,0.6,1.2,0.9,1.6,1.6
			c0.2,0.4,0.5,0.5,1,0.5c0.5,0.1,1,0.4,1.5,0.7c0.3-0.5,0.5-1,0.7-1.5c0.4,0,0.6,0.1,0.5,0.4c-0.1,0.6,0.3,0.8,0.7,1.2
			c0,0.3,0,0.7,0,1.2C66.2,53.2,67.2,53.2,68.2,53.2c-0.1,0.4,0.1,0.6,0.3,0.9c0.2,0.3-0.1,0.8,0.1,1.1c0.9,0.3,1.7,1,2.7,0.8
			c0,0.2,0,0.4,0.1,0.8c0.4-0.2,0.7,0.1,1-0.3c0-0.1,0-0.3,0-0.5c-0.3,0-0.7,0-1,0c0-0.3,0-0.6-0.2-0.8c-0.7-0.7-1.4-1.4-2-2
			C68.8,53.2,68.5,53.2,68.2,53.2z M65.8,54.9c0.6,0,1.1,0,1.7,0c0.1-0.4,0.2-0.7-0.1-1c-0.5,0.2-1.1-0.2-1.6,0.2
			C65.8,54.4,65.8,54.7,65.8,54.9c-0.3,0-0.6,0-0.9,0c-0.2,0.3-0.8,0.4-0.4,1c0.2,0,0.5,0,0.8,0C65.4,55.7,65.6,55.3,65.8,54.9z
			 M59.5,37.8c0,0.4,0,0.9,0,1.3c1.2,0,1.7-0.2,1.7-0.9c-0.1-0.1-0.4-0.2-0.9-0.5C60.3,37.8,59.9,37.8,59.5,37.8
			c-0.1-0.4,0.5-0.5,0.2-0.9c-1.5-1.2-3.5-1.8-5.2-2.9c-0.1,0-0.2,0-0.5,0.1c0.6,0.3,0.4,1.1,1.1,1.3c0.8,0.2,1.3,0.8,1.9,1.3
			C57.8,37.2,58.4,38,59.5,37.8z M59,52.2c-0.3,0.1-0.6,0.3-0.8,0.4c-0.3,0.6-0.6,1.1-0.8,1.6c0.3,0.5,0.4,1,0.9,1.4
			c0.2,0,0.4,0,0.5,0c0.3-0.4,0.6-0.7,0.9-1c-0.3-0.2-0.1-0.7-0.5-0.9C59.8,53.2,59.5,52.7,59,52.2z M61.5,65.8
			c0-1.7-0.3-2.3-1.3-2.8c-0.1,1-0.2,2,0.5,2.8C60.9,65.8,61.2,65.8,61.5,65.8z M66,57.4c0,0.1,0,0.2,0,0.3
			c-0.2,0.1-0.4,0.1-0.6,0.2c0.4,0.4,0.8,0,1.1,0.4c0.1,0.2,0,0.4,0.2,0.6c0.3-0.1,0.6,0.1,0.9-0.2c-0.2-0.4,0.2-0.8-0.2-1.2
			C66.9,57.4,66.4,57.4,66,57.4z M55.4,63.4c-0.4,0.3-0.6,0.9-0.8,1.3c0.2,0.2,0.3,0.3,0.4,0.4c0.3-0.4,1-0.3,1.2-0.8
			c0-0.3,0-0.6,0-0.8C56,63.3,55.7,63.4,55.4,63.4z M54.4,61.6c0.4,0.1,0.6-0.3,0.9-0.5c-0.2-0.4,0.2-0.8-0.1-1.1
			c-0.4,0.3-0.7,0.5-1,0.8C54.3,61.1,54.1,61.4,54.4,61.6z M59.9,62.4c0.3-0.2,0.7,0.1,1-0.3c-0.2-0.4,0.2-0.8-0.2-1.2
			C59.9,61,59.7,61.5,59.9,62.4z M57.3,65.4c-0.4,0.5-1.2,0.4-1.2,1.1c0.2,0.2,0.3,0.5,0.7,0.4C57.3,66.6,57.5,66.2,57.3,65.4z
			 M59.5,58.5c0.3,0,0.5,0,0.6-0.1c0.2-0.5,0-0.8-0.3-1.2c-0.1-0.1-0.2-0.1-0.3,0.1C59.5,57.6,59.5,58,59.5,58.5z M61.6,53.2
			c0.3,0,0.6,0,1,0c0-0.2,0-0.4,0-0.6c-0.3,0-0.6,0-1,0C61.6,52.8,61.6,53,61.6,53.2z"/>
		<path fill="#17ADDC" d="M54.2,8.4c-0.2-0.7-1.1-0.1-1.4-0.7c-1.2,0.2-2.3-0.4-3.5-0.4c-0.9,0-1.6,0.6-2.5,0.4
			c-0.8-0.2-1.6,0.2-2.3,0.4c-0.8,0.3-1.6,0.5-2.3,0.7c-1.2,0.4-2.4,0.8-3.5,1.3c-1.5,0.7-3,1.4-4.4,2.4c-1.6,1.2-3.5,1.9-5.3,2.8
			c-1,0.5-1.9,0.9-2.9,1.3c-0.3,0.1-0.8,0.1-1.2,0.1c-0.2-0.9,0.2-1.4,0.7-2c0.8-0.9,1.5-1.8,2.3-2.7c0.8-0.9,1.7-1.7,2.6-2.6
			c1.9-2,3.8-4,5.3-6.3c0.8-1.2,2-2.1,3.1-3.2c5.8,0,11.7,0,17.6,0c0.4,0.4,0.8,0.7,1.2,1c0.6-0.2,0.3-0.7,0.4-1
			C59.1-0.1,60,0,60.7,0.8c0.1-0.2,0.2-0.4,0.2-0.7c4.3,0,8.7,0,13.1,0c0.1,0.1,0.3,0.3,0.4,0.4c0,1.5,0,2.9,0,4.5
			c-1.8-0.5-3.5-1.1-5.1-2.1c-1.1,0.3-2.3-0.6-3.6-0.3c0.2,0.4,0.5,0.6,0.9,0.6c2.1,0.3,4.1,1.1,6.1,2.4c0.3,0,0.8,0,1.2,0
			c0.2,0.2,0.3,0.3,0.4,0.4c0.5,1.1-0.3,2.2-0.3,3.3c-0.7,0.5-1.5,0.9-2.1,1.7c0.3,0.4,0.8,0,1.1,0.2c0.5-0.2,0.6-0.8,1.2-0.7
			c0.5,0.7,0,1.3-0.2,1.9c-1.4,0.9-2.7,2.2-4.5,2.3c-0.9-0.6-1.2-1.6-2.1-2.1c0-0.2,0.1-0.4-0.1-0.7c-0.4-0.4-0.8-0.8-1.2-1.2
			c0-0.3,0-0.5,0-1c0.7,0.6,1.2,1.1,1.8,1.6c0.2-0.2,0.2-0.3,0.3-0.4c0.1-0.3-0.1-0.4-0.3-0.6c-1.6-1.6-3.1-3.1-4.7-4.7
			c-0.8-0.8-1.3-1.9-2.4-2.5C61,2.6,60.2,2.9,60,2.5c-0.1,0.1-0.2,0.2-0.4,0.4c-0.2,0.1-0.1,0.1,0,0.3C59.8,4,60.7,4.4,61.2,5
			c1.3,1.4,2.3,2.9,3.3,4.4c0.4,0.7,0.8,1.5,0.6,2.3c-0.4,0.8-1.3,0.3-1.7,0.9c-1.2-0.6-2.1-1.3-3.2-1.9C58.3,9.8,56.4,8.7,54.2,8.4
			z M69.7,11.9c0.6,0.1,1,0,1.3-0.5c0.1-0.2,0.2-0.6,0-0.8c-0.9-0.8-1-2.1-2.1-2.8c-0.2-0.1-0.3-0.1-0.5-0.1
			c-0.2,0.4-0.4,0.8-0.5,1.1C68.5,9.9,69.1,10.8,69.7,11.9z M65.4,3.5c-0.1,0.7,0.3,0.9,0.6,1.1c0.9,0.4,1.8,0.7,2.7,1
			c0.6,0.2,1.2,0.6,1.5,1.1c0.3,0.5,0.6,0.3,1,0.3c0.1-0.4,0.1-0.9,0-1.1C69.5,4.7,67.5,4.2,65.4,3.5z M64.3,3.1
			c-0.4,0.3-1.1-0.3-1,0.7c0.4,0.2,0.7,0.2,1,0C64.3,3.6,64.3,3.5,64.3,3.1z"/>
		<path fill="#17ADDC" d="M28.3,66c-0.4-0.5-0.1-1.2-0.8-1.5c-0.5,0.5-0.7,1.2-0.5,2c-0.6,0-1.2,0-1.7,0c-0.3-0.6,0.2-0.7,0.5-1
			c0.6-0.6,1-1.4,0.8-2.3c-0.2-0.1-0.4-0.1-0.6-0.2c0-0.3,0-0.7,0-1.1c-0.3-0.2-0.7-0.5-1.2-0.9c-0.4,0.2-0.9,0.4-1.4,0.7
			c-0.5,0-0.1-0.7-0.7-0.7c-0.5,0.1-0.7,0.7-1.2,1c-0.2-0.2-0.3-0.3-0.6-0.6c0.2-0.6,0.7-1.1,1.4-1.3c0-0.3,0-0.5,0-0.8
			c-0.6-0.1-1.1-0.3-1.5,0.2c-0.6-0.3-0.5-0.8-0.6-1.3c-0.3,0-0.6,0-0.8,0c-0.3,0.1,0,0.5-0.3,0.6c-0.5-0.5,0.1-1.2-0.3-1.7
			c-0.1,0-0.2,0-0.4,0c-0.3,0.5,0,1.1-0.2,1.6c-0.4,0.3-0.8,0.1-1.2,0.1c-0.3-1-0.7-2-0.5-3c0.2-0.2,0.3-0.3,0.4-0.4
			c0.4,0.1,0.5,0.7,1.1,0.6c0.5-0.5,0-1-0.2-1.3c0.1-0.4,0.5-0.5,0.3-1c-0.5-0.3-1,0-1.4-0.1c-1,0.3-0.5,1.2-0.8,1.7
			c-0.7,0.2-0.8-0.5-1.3-0.8c0.1-1.3-0.9-2.3-1.1-3.6c0.2-0.3,0.5-0.1,0.9-0.2c0.2,0.2,0.4,0.5,0.4,0.6c1.1,0.5,1.9-0.3,2.7-0.2
			c0.3-0.3,0.6-0.6,0.9-0.9c-0.2-0.3-0.6-0.5-1.1-0.6c0.5-0.4,0.3-1,0.4-1.6c0.7,0.4,1.4,0.3,2.3,0.3c0.2-0.3,0.5-0.6,0.9-1.1
			c0,0,0-0.3,0-0.5c-0.1-0.2-0.3-0.2-0.5-0.2c-0.6,0.2-1.3,0.4-2.1,0.7c0.4-1.2,1.4-1.6,2-2.4c0.3,0.1,0.6-0.1,0.9,0.2
			c-0.1,0.1-0.2,0.2-0.3,0.4c0.4,0.3,0.8,0.1,1.4,0.1c0-0.7,0-1.3,0-2c0.2,0,0.3-0.1,0.5-0.1c0.4,0.2,0.2,0.7,0.6,0.9
			c-0.1,0.5-0.5,0.9-0.4,1.4c-0.2,0.2-0.8,0-0.7,0.6c0.2,0.5,0.8,0,1,0.4c-0.2,0.4-0.6,0.5-1,0.8c0.5-0.1,0.7,0.6,1.3,0.5
			c0.1,1.4,1.4,0.9,2.1,1.6c0,0.4,0,0.9,0,1.3c0.6,0.5,1.1,1,1.6,1.6c0.7,0,1.4,0,2.1,0c0.2,0.2,0.4,0.4,0.6,0.6
			c-0.2,0.7,0.3,1.5-0.4,2.1c1.8,0.6,3.3,2,5.1,2.6c0.6,0.2,0.7,0.9,0.9,1.5c-0.4,0.5-0.9,0-1.3,0.3c-0.4,0.7,0.1,1.3,0.4,2
			c0.3,0,0.6,0.1,0.9-0.1c0-0.4,0-0.8,0.1-1.2c0.6,0,1.2,0,2,0c0.6,0.7,1.4,1.4,2.2,2.3c0,0.3,0,0.7,0,1c0.4,0.3,0.9,0,1.3,0.5
			c0.1,0.2,0.8,0.4,0.7,0.5c-0.2,1,0.7,1.2,1.3,1.6c-0.5,0.5-1.3,0.2-1.5,0.9c0.5,0.2,0.2,0.8,0.4,1.2c0.6,0.2,1.4-0.1,2.3,0.4
			c-1.3,0.1-2.2,0-3.2,0c-1,0-2-0.1-3,0c-1,0.1-1.9-0.2-2.8-0.5c0-0.8-0.6-1.4-0.4-2.2c-0.2-0.3-0.3-0.2-0.5-0.2
			c-0.4-0.5-0.4-1.3-1-1.7c-0.2,0-0.5,0-0.8,0c-0.2,0.3-0.2,0.7-0.1,0.8c0.6,0.4,0.7,1,0.8,1.6c0.1,0.4,0.6,0.6,0.8,0.9
			c0.2,0.4,0.5,0.7,0.9,1.1c-0.8,0-1.5,0-2.6,0c-0.1-0.1-0.4-0.5-0.7-0.8c-0.5-0.6-1.1-0.9-1.9-0.8C29.2,66.9,28.7,66.5,28.3,66
			c0.6,0.2,0.7,0.3,0.9,0.5c0.3-0.2,0.3-0.4,0-0.7C29.1,65.8,28.9,65.9,28.3,66z M27.2,57.5c-0.9,0.1-0.7-0.8-1.1-1.1
			c-0.5-0.3-0.9-0.5-1.4-0.7c-0.3,0.2-0.2,0.4-0.3,0.7c0,0.2,0,0.4,0,0.6c0.3,0.3,0.5,0.6,0.8,0.8c0.3,0.2,0.7-0.1,0.9,0.2
			c0,0.7,0.6,0.8,1,1.4C27.2,58.6,27.2,58.1,27.2,57.5z M30.2,61.3c-0.3,0-0.7-0.1-1.1,0.1c-0.3,0.6,0,1,0.5,1.3
			c0.4,0,0.8,0.1,1.1-0.1C30.9,62.1,30.8,61.7,30.2,61.3z M27.3,53.2c0.1,0.5-0.4,1,0.4,1.1c0.4,0,0.1,0.5,0.4,0.6
			c0.1,0.1,0.3,0,0.5,0.1c0-0.3,0-0.6,0-0.9C28.3,53.8,28.1,53.3,27.3,53.2z M18.4,55.7c0.2,0.7,0.4,1.1,1,1c0.2-0.4,0.2-0.7,0-1
			C19.2,55.7,18.9,55.7,18.4,55.7z M38.4,63c0.1-0.5,0.1-0.9,0-1.3c-0.2,0-0.3,0-0.5,0c-0.1,0.5-0.1,0.9,0,1.3
			C38,63,38.2,63,38.4,63z M27.9,59.6c0.2,0.7,0.4,1.1,1,1c0.2-0.4,0.2-0.7,0-1C28.6,59.6,28.4,59.6,27.9,59.6z"/>
		<path fill="#17ADDC" d="M17.5,40.8c-1-0.5-1.6-1-2.1-1.6c-0.1,0.1-0.2,0.1-0.2,0.1c-0.3,0.2,0,0.6-0.2,0.8
			c-0.7,0.2-1.2,0.8-1.6,1.4c-1,1.5-2.1,2.9-3.2,4.3c-0.8,0.9-1.4,2-1.8,3.1c-0.4,1.2-1.6,1.7-2.7,2.4c0-8.5,0-16.9,0-25.3
			c0.4,0,0.7,0,1,0c1.8,0.8,3,2.4,4.8,3.2c1.2,0.5,2.4,0.9,3.7,1.3c0.1,0,0.2,0.1,0.4,0.2c-0.3,0.2-0.6,0.4-0.8,0.6
			c0,0.4,0,0.7,0,1.1c0.3,0.3,0.7,0.7,1.1,1.1c-0.4,0.6-0.5,1.2-0.3,1.8c0.3,0,0.6,0.1,0.9,0.1c0,0.5,0,1,0,1.5
			c0.7,0.8,1.6,0.7,2.5,1.1c0,0.2,0,0.4,0,0.7c-0.6,0.8-1.6,0.5-2.5,0.6c0.1,0.3,0.3,0.3,0.5,0.3c0.2,0,0.3,0,0.5,0
			C17.6,39.9,17.4,40.3,17.5,40.8z"/>
		<path fill="#17ADDC" d="M38.9,25.8c1.1,0.5,1.8,1.5,3,1.2c0.2-0.1,0.1-0.3,0.1-0.5c-0.6-0.3-1.5,0.2-1.8-1c0,0,0.2-0.1,0.4-0.3
			c-0.4-0.6-1-1.1-1-1.8c0.7-0.7,1.4-1.4,2.3-2.3c0,0,0.5-0.1,0.9,0.1c0,0.1,0,0.3,0,0.4c-0.2,0.3-0.5,0.1-0.9,0.2
			c-0.2,0.3-0.5,0.6-0.9,1.2c-0.1,0.4,0.7,0.8,0.4,1.5c1.8,0.6,3.2-0.6,4.8-0.6c0.2,0.4,0.1,0.9,0.2,1.2c0.2,0.2,0.3,0.3,0.5,0.5
			c0.3-0.1,0.1-0.6,0.4-0.7c0.4,1.5-0.3,3.1,0.6,4.5c0.2,0,0.5,0.1,0.8,0.1c0,0.1,0.1,0.2,0.1,0.3c0.2,0.6-0.2,1.3-0.4,1.8
			c-0.6,1.1-0.2,1.9,0.4,2.7c0.3,0.3,0.7-0.1,1,0.2c-0.1,0.1-0.1,0.2-0.2,0.2c-0.8,0.3-1.7,0.5-2.5,0.8c-0.8,0.3-1.4,0.8-2.2,1
			c-0.6,0.1-1.1,0.7-1.6,1.1c-0.2,0.2-0.5,0.2-0.7,0.3c-0.6,0.7-0.5,1.5-0.5,2.2c-0.5,0.6-0.5,1.6-1.6,1.2c-0.3-0.6-0.3-1.2-0.5-1.8
			c-0.2-0.6-0.7-1.1-0.6-1.8c0-0.4-0.3-0.5-0.4-0.7c-1.1-2-2.9-3.6-4-5.7c-0.9-0.5-0.4-1.5-0.8-2.3c-0.3-0.5,0-1.3-0.4-1.9
			c-0.3-0.6,0.2-1.3,0.2-1.9c0-0.9,0.4-1.6,0.4-2.5c0-0.6,0.4-0.9,1.2-0.8c0.5,0.8,1.7,1.1,2.3,1.9c0,0.3,0,0.5,0,0.7
			c-0.2,0.1-0.4,0.2-0.6,0.3c0,0.3,0,0.7,0,1.1c0.4,0.4,0.7,1.1,1.6,0.8C38.9,26.4,38.8,26.1,38.9,25.8z M40.2,35.8
			c0.1,0.6-0.1,1.2,0.2,1.7c0.5,0,0.7-0.3,0.9-0.5c-0.1-0.4,0.1-0.8-0.1-1.2C40.9,35.8,40.6,35.8,40.2,35.8z"/>
		<path fill="#17ADDC" d="M21.7,16.5c0-0.2,0.1-0.5-0.2-0.7c-0.7,0.5-1.6,0.5-2.6,0.3c0.6-0.6,1.1-1.1,1.8-1.8
			c-1.7-0.1-2,0.2-2.7,2.4c-1.1,0.4-2.3,0.9-3,2.2c0.6,0.2,1.2,0.2,1.7,0.7c0.2-0.4,0.4-0.7,0.6-1.1c0.5,0.8,1.2,0.5,1.8,0.6
			c0,0.9-0.9,1.1-1.2,1.8c1.1,0.6,2.2,1,3.1,1.7c1,0.7,2.2,0.6,3.1,1.3c0.3,0.2,0.9,0,1.3,0c0.5-0.4,0.9-0.6,1.5-0.7
			c0.9-0.2,1.7-0.7,2.4-1.4c0.8-0.8,1.8-1.3,2.7-1.8c0.3,0.3,0.3,0.5,0.1,0.8c-0.6,0.6-1.3,1.1-1.9,1.7c-0.1,0.1-0.3,0.1-0.4,0.2
			c-1.2,1.8-1.4,2-3.3,2.9c-0.1,0.1-0.3,0.2-0.4,0.4c-3.1,0.2-5.7-1-8-3.1c-0.6-0.6-1.3-1.3-2.3-1.1c0-0.3,0-0.7,0-1.1
			c0.2,0,0.3,0,0.3-0.2c0,0-0.1-0.1-0.1-0.1c-0.2,0-0.2,0.1-0.2,0.3c-0.4,0-0.8,0-1,0c-1.9-1-3-2.7-4.6-3.7c-1.5-1-3.4-1.3-4.9-2.4
			c0.2-0.6,0.5-1,0.4-1.6c2.7,1.1,4.8,3.2,7.4,4.5c0.5,0,1,0,1.2,0c1-0.2,1.5-0.8,2-1.3c1.8-1.8,3.5-3.5,5.3-5.3
			c0.5,0.1,0.9,0.6,1.5,0.3c0.5-0.8-0.6-0.5-0.6-0.9c0.5-1.8,2.4-2.5,3.1-4.1c-0.1-0.3-0.4-0.2-0.6-0.3c-0.3-0.8-0.1-1.6,0.4-2.3
			c0.9,0,1.7,0,2.6,0c0,0.2,0.1,0.4,0.1,0.6c1.8-1.1,2.9-3,4.8-4.2c0.6,0,1.3,0,2,0c0.3,0.4,0.9,0.6,0.9,1.4
			c-0.7,1.1-1.4,2.5-2.5,3.4c-1.1,1-1.7,2.5-3.2,3.2c-0.2-0.6,0.3-0.8,0.6-1.1c0.3-0.4,1-0.5,0.7-1.3c-0.3,0-0.6,0-1,0
			c0.1-0.2-0.1-0.5,0.2-0.7c0.1-0.1,0.4,0,0.6-0.3c-0.1-0.2,0.1-0.5-0.2-0.9c-0.7,0.4-1.6,0.4-2.2,1c-0.1,0.6,0.1,1,0.8,1.2
			c0.2-0.3,0.5-0.5,0.9-0.4c0,0.2,0.1,0.4,0,0.5c-0.9,0.7-1.7,1.6-2.6,2.2c-0.6,0.4-0.5,0.9-1.1,1.5c0.6,0,1,0.1,1.1,0
			c0.3-0.2,0.5-0.4,0.9-0.3c-0.2,0.8-1.3,0.8-1.4,1.6c-0.8,0.2-0.8,0.9-1.1,1.4c-0.6,0.3-1.4-0.3-1.9,0.5
			C24,14.6,23.3,15.9,21.7,16.5z"/>
		<path fill="#17ADDC" d="M67.5,12.6c0.2,0.8-0.7,1.5-0.3,2.3c-0.9,0.6-1.3,1.7-2.3,2.2c-0.8,0.5-1.6,0.9-2.4,1.3
			c-0.8,0.5-1.7-0.1-2.5-0.5c-0.2-0.1-0.3-0.3-0.5-0.5c0-1.2-0.5-2-1.6-2.8c-1-0.7-2.2-1-3.1-1.9c-0.5-0.4-1.5-0.3-2.2-0.5
			c-1.7-0.3-3.3,0.3-4.9,0.4c-0.7,0-1.5,0.4-2.1,0.7c-1.8,0.7-3.6,1.2-5.2,2.2c-1.1,0.6-2.4,0.9-3.2,1.9c-0.8-0.2-1.2,0.5-1.7,0.8
			c-0.6,0.3-1,0.9-1.5,1.4c-0.2,0-0.5,0-0.7,0c-0.7-0.7,0.5-3.7,2.5-5.6c0.7,0.1,1.5-0.1,2.1-0.7c1.2,0.4,2.2-0.6,3.3-0.8
			c0.2,0,0.4-0.2,0.4-0.5c0.7,0.1,1.5,0,2.1-0.5c0.5-0.4,1.1-0.4,1.6-0.8c0.2-0.2,0.6,0,0.8-0.2c0.2-0.1,0.4-0.3,0.4-0.5
			c0.1-0.2-0.1-0.6,0.2-0.8c0.4,0.3,0.9,0.6,1.4,0.7c0.3-0.3,0.2-0.6,0.2-0.9c0.9-0.8,2-0.5,3.1-0.6c0,0.2,0.1,0.4,0.1,0.6
			c1.4,0.5,2.8,1,4.2,1.5c1.4,0.4,2.8,0.9,4.1,1.1c1,1.3,1.1,2.8,2.2,3.7c0.8,0.4,1.4-0.4,2.2-0.3c0.7-1,2-1.5,2.8-2.5
			C66.9,12.6,67.2,12.6,67.5,12.6z"/>
		<path fill="#17ADDC" d="M6.2,10.7c0.2-1.1,1-3.2,1.5-3.9C9.6,4.1,12,2,15.1,0.9c1.3-0.5,2.7-1,4.2-0.9c2.7,0.1,5.5,0,8.3,0
			c-0.3,0.5-0.7,0.8-1.1,1.1c-1.3,0.9-2.7,1.5-4,2.3c-0.8,0.5-1.4,1.2-2,1.8c-1,0.9-2,1.7-3.3,2.2c-0.9,0.4-1.9,0.6-2.7,1
			c-0.9,0.5-1.9,0.5-2.9,0.7c-1.3,0.4-2.7,0.6-3.9,1.2C7.2,10.6,6.8,10.4,6.2,10.7z"/>
		<path fill="#17ADDC" d="M56.1,42.2c-0.4-0.2-0.7-0.2-0.8-0.3c-1.6-1.1-1.7-1.1-3.6-0.3c-1.3,0.6-2.6,1.1-4,1.3
			c-0.2,0.2,0,0.5-0.1,0.8c-0.4,0.2-0.7-0.6-1.1-0.1c-0.5-0.5-1.2-0.8-1-1.6c1-1.3,2.4-1.7,4-2c1.4-0.3,2.8-0.1,4.3-0.3
			c0.3-0.6,1-0.7,1.5-1.1c0.5,0.5,1,1,1.5,1.4c0.3,0.3,0.2,0.8,0.6,1c-0.2,1,0.5,2,0.4,3c-0.2,1,0.2,2-0.3,3c-0.3,0.6,0,1.4,0,2
			c-0.4,0.4-0.6,0-0.9-0.2c-0.7,0-1.4,0-2.1,0c-0.4-0.5-1.5-0.3-1.4-1.4c-0.1,0.3-0.2,0.5-0.4,1c0.3,0.7,0.4,1.7,0.2,2.9
			C52,50.5,51.1,50,50,49.6c0.1-0.9-0.1-1.8-0.3-2.7c-0.3-1-1.2-1.3-1.7-1.8c-0.1-0.4,0-0.6,0.2-0.6c1.1-0.5,2.2-1,3.3-1.5
			c0.4,0.3,0.6,0.6,1,0.8C53.7,43.6,54.9,43,56.1,42.2z"/>
		<path fill="#17ADDC" d="M44.9,60.9c-0.3,0.1-0.5,1.1-1.5,0.6c0-0.5-0.1-1.2-0.1-2c-1.3,0-2.6,0.5-3.9,0.7c-0.5-0.6-0.8-1.2-0.6-2
			c0.5-0.3,1-0.5,1.7-0.5c0.4,0,0.7-0.3,0.7-0.9c-2,0-3.9-0.6-6-1.5c-0.1,0-0.4,0-0.8,0c-0.3-0.1-0.1-0.4-0.3-0.6
			c-0.3-0.3-0.7,0.1-0.9-0.2c0-0.1,0-0.2,0-0.4c0.7-0.3,1.4,0,2.1-0.1c0.1,0,0.2,0,0.2,0.1c0.4,0.2,0.8,0.6,1.1,0.6
			c1.3,0,2.4,0.7,3.6,0.7c1.8,0.1,3.7,0,5.5,0c0-0.2,0.1-0.3,0.1-0.5c-0.3-0.4-0.8-0.1-1.2-0.2c-0.3-0.3-0.6-0.6-0.9-0.9
			c0.2-0.3,0.6-0.5,1.2-0.7c-0.4-0.2-0.7-0.4-1-0.6c0.3-0.3,0.4-0.5,0.6-0.6c1.8-0.3,3.2,0.6,4.6,1.5c0.1,0.5,0.8,0.8,0.4,1.6
			c-1.5,0.1-3.1,0.7-4.7,1.2c-0.3,0.7,0.3,1,0.6,1.4c0,0.4,0,0.7,0,1c-0.2,0.4-0.7,0.5-1.4,0.9c0.9,0,1.5,0,1.9,0
			c0.4,0.5-0.2,0.7-0.2,1c-0.1,0.4,0.6,0.4,0.4,0.9c-0.1,0.2-0.3,0.3-0.6,0.2C45.3,61.4,45.7,60.9,44.9,60.9z M41.7,57.9
			c0,0.6-0.2,0.9,0.1,1.3c0.2,0,0.5,0.1,0.5-0.3C42.4,58.5,42,58.4,41.7,57.9z"/>
		<path fill="#17ADDC" d="M18.9,67.2c-0.5,0-0.9,0-1.4,0c0.1-0.6,0.1-1.1-0.6-1.4c-0.1,0.5-0.2,0.9,0.1,1.4c0.2,0,0.3,0,0.5,0
			c0,0.2,0,0.3,0,0.5c-0.4,0.3-0.9,0.1-1.4,0.1c0.2-1.4-0.7-2.6-0.3-4.1c-0.9,0-1.6,0-2.3,0c-0.3-0.4-0.2-0.6,0.3-0.9
			c-0.3-0.1-0.6-0.2-0.9-0.2c-0.1-0.4-0.2,0-0.5,0.1c-1.8-1.8-1.8-1.8-1.8-3.1c0.8,0,1.6,0,2.4,0c0.7,0.3,0.1,1,0.5,1.4
			c0.6-0.3,0.8-0.8,0.4-1.4c-0.3,0-0.6,0-0.9,0c0-0.3-0.1-0.7,0.1-1c0.1,0,0.2-0.1,0.3,0c0.5,0.2,0.8,0.7,1.3,1
			c0.4,0.3,1,0.4,1.4,0.9c0.3,0.4,0.6,0.9,0.9,1.1c0.4,0.3,0.8,0.6,1.2,0.9c0,0.6,0,1.2,0,1.8c0.2,0.3,0.4,0.2,0.6,0.2
			c0.1-0.2,0.1-0.4,0.2-0.7c0.8,0.1,1.6-0.2,2.4,0.4c0.4-0.3,0.3-0.9,0.8-1.1c0.3,0.2,0.3,0.7-0.2,1.9c0.4,0.3,1,0.2,1.4,0.6
			c0.4,0.5,0.1,1.1,0.7,1.5c-0.3,0.2-0.7,0.3-1,0.5c-0.4,0.1-0.5-0.6-0.9-0.3c-0.2-0.4-0.4-0.9-0.7-1.5c-0.4,1.1-1.6,1.6-1.6,2.8
			C19.1,67.9,19.1,67.9,18.9,67.2c0.7,0.2,0.9-0.5,1.4-0.8c0-0.5,0-1,0-1.5c-0.2-0.2-0.3-0.3-0.5-0.5c-0.3,0.3-0.1,0.6-0.2,0.9
			c-0.2,0.2-0.5,0.4-0.7,0.6C18.9,66.4,18.9,66.8,18.9,67.2z M15.4,62.9c1.1,0.1,1.1,0.1,0.9-1C15.8,62.1,15.4,62.2,15.4,62.9z"/>
		<path fill="#17ADDC" d="M23.8,33.9c0.8-0.1,1.3,0.6,2,0.4c0.2,1.1,0.4,1.4,1,1.4c0.6,0,0.7-0.3,1-1.4c0.4,0,0.8,0,1.1-0.1
			c0.4-0.2,0.5-0.9,1.1-0.6c0,0.1,0.1,0.3,0.1,0.3c-0.4,0.7-0.7,1.4-1.4,2c-0.5,0.4-0.9,0.9-1.5,0.7c-1.4-0.4-3-0.3-4.1-1.5
			c0-1.4,0-2.8,0-4.3c0.6-0.3,0.6-1.1,1.2-1.5c0.6-0.2,1,0,1.3,0.5c0.1,0.9-0.6,1.2-1,1.8C24.2,32.4,23.6,33,23.8,33.9z"/>
		<path fill="#17ADDC" d="M50,64.9c-0.2,0.5-0.7,0.5-1,0.7c0.2,0.2,0.5,0.4,0.2,0.9c-0.1,0.2-0.6-0.2-0.9,0.1c0,0.1,0,0.3,0,0.4
			c0.4,0.3,0.8,0.1,1.2,0.1c0.2,0.1,0.2,0.3,0.2,0.4c0,0.4-0.2,0.9,0.7,1.3c-1.1,0-1.9,0-2.4,0c-0.8-0.8-1.4-1.4-2.1-2.1
			c0-0.1,0.2-0.2,0.4-0.4c-0.4-0.6-1.4-0.7-1.7-1.5c0-0.2,0-0.4,0-0.6c0.4-0.2,0.8-0.1,1.2-0.1c0.4,0.2,0,0.7,0.2,1
			c0.4,0.2,0.8,0.1,1.3,0.1c-0.5-0.8-0.2-1.6-0.3-2.3c0.3-0.1,0.4-0.2,0.7,0c0.2,0.2,0,0.5,0.1,0.8C48.4,64.1,49.3,64.2,50,64.9z"/>
		<path fill="#17ADDC" d="M16.8,46.6c-0.4-0.5-0.4-1-0.3-1.6c-1-0.6-1.6-1.2-1.8-2c0.5-0.8,1.4-1.2,2.2-1.6c0.3-0.2,0.6-0.3,0.6-0.7
			c0.5,0,1,0,1.6,0c0.3,0.1,0.1,0.4,0.3,0.7c0.3-0.3,0.1-1,1-0.9c0.3,0.1,0.3,0.8,0.7,1.4c-0.7,0-1,0.6-1.4,0.8
			c-0.7,0-0.3-0.5-0.6-0.6c-0.9-0.3-1.4,0.6-2.2,0.6c-0.2,0.4-0.4,0.7-0.5,1.1c0.5,0.9,1.4,0.8,2.2,1.2c-0.3,0.5-0.4,1.1-0.8,1.4
			C17.5,46.7,17.1,46.5,16.8,46.6z"/>
		<path fill="#17ADDC" d="M8.7,61.6c0.5,0,1,0,1.6,0c0.3,0.2,0.1,0.7,0.5,0.8c-0.3,0.3-0.5,0.6-0.2,1.2c0,0,0.2,0.2,0.4,0.4
			c0.4,0,0.9,0,1.4,0c0.3,0.6,0.9,0.7,1.3,1c0.4,0.4,0.2,0.9,0.2,1.2c-0.4,0.3-0.7,0.6-1.1,0.9c-1.5-1.3-3.5-2.3-4.4-4.3
			C8.9,62.6,8.7,62.1,8.7,61.6z"/>
		<path fill="#17ADDC" d="M50.6,36c0.1,0.3,0.1,0.5,0.1,0.6c-0.5,0.4-1.1,0-1.6,0.2c-1.8,0.7-2.8,2.5-4.2,3.8c-0.4,0-0.8,0-1.1,0
			c-0.2-0.3-0.3-0.6-0.5-1.1C44.9,36.8,47.7,36.4,50.6,36z"/>
		<path fill="#17ADDC" d="M44.4,20.2c-0.4,0.6-0.9-0.3-1.4,0.1c-0.4,0.3-1.2-0.1-1.7,0.4c-0.4,0.4-1.1,0.1-1.4,0.6
			c-0.3,0.5-0.7,0.7-1.2,0.8c-0.3-0.4-0.1-0.8-0.2-1.2c0.9-0.8,1.7-1.7,3-2C43.1,18.5,43.6,18.6,44.4,20.2z"/>
		<path fill="#17ADDC" d="M6.8,53.8c0.9-1.4,1.9-1.8,3.2-1.6c0.3,0.3,0.6,0.6,0.8,0.8c-0.2,0.2-0.5,0.4-0.3,0.7
			c-0.4,0.4-0.9,0-1.3,0.2c-0.1,0.1-0.1,0.2,0,0.2c0.4,0.2,0.9,0.4,1.3,0.6c-0.1,0.6-0.6,0.9-0.9,1.2c-0.4,0-0.7,0-1,0
			C8,55.3,8.3,53.9,6.8,53.8z"/>
		<path fill="#17ADDC" d="M61.9,25.2c-0.8-0.9-1-1.7-1.4-2.6c0.3-0.2,0.6-0.4,1.2-0.8c0.2,0,0.7,0,1.2,0c0.1,0.1,0.3,0.3,0.5,0.5
			c-0.3,0.3-0.6,0.2-1,0.2c-0.4,0-0.5,0.3-0.8,0.6c0.4,0.3,0.8,0.1,1.2,0.1c0.3,0.2,0.5,0.4,0.6,0.5c0,0.7-0.5,0.3-0.7,0.7
			c0.3,0.1,0.6,0.3,0.9,0.4C62.7,25.3,62.2,25.3,61.9,25.2z"/>
		<path fill="#17ADDC" d="M16.8,46.6c0,0.5,0.7,0.6,0.7,1.2c-0.3,0.4-0.8,0.1-1.2,0.2c-0.6,0.4-0.7,1.1-1,1.7c-0.6,0-1.2,0-1.8,0
			c-0.3-0.2-0.1-0.4-0.1-0.7c0.6,0,1.2,0.1,1.4-0.7c0.1-0.4-0.7-0.4-0.3-0.9c0.3-0.4,0.8,0,1.2-0.2c0.2-0.4-0.5-0.5-0.2-0.9
			C16,45.9,16.3,46.9,16.8,46.6z"/>
		<path fill="#17ADDC" d="M20.3,36.6c-0.1-1.4,1.3-1.8,1-3.1c0.4,0.4,0.6,0.7,1,1.2c-0.3,0.8,0.6,1.9,0.3,3.3
			C21.9,37.2,20.8,37.3,20.3,36.6z"/>
		<path fill="#17ADDC" d="M59.4,19.4c0,0.5,0,1,0,1.7c-1.1-0.4-2-0.9-2.9-1.4c-0.2-0.1-0.3-0.4-0.1-0.7C57.4,19,58.5,18.7,59.4,19.4
			z"/>
		<path fill="#17ADDC" d="M47.2,48.2c-0.8-0.4-1.2-1-1.6-1.3c-0.3-0.9,0.4-1.2,0.8-1.6c0.3,0,0.5,0,0.8,0
			C47.2,46.1,47.2,47,47.2,48.2z"/>
		<path fill="#17ADDC" d="M25.4,67.2c0.5,0.1,0.6,0.4,0.9,0.5c0.1,0.5-0.5,0.7-0.4,1.2c-0.6,0-1.1,0.1-1.7-0.1
			C24.3,68.1,25,67.7,25.4,67.2z"/>
		<path fill="#17ADDC" d="M12.2,49.9c-0.4-0.6-1-0.7-1-1.4c0.8-0.5,1.7,0.2,2.5-0.5C13.5,48.9,12.8,49.3,12.2,49.9z"/>
		<path fill="#17ADDC" d="M7.4,55.6c-0.2,0.6-0.6,0.8-1,1.2c-0.2,0-0.5,0-0.8,0c0-0.7,0-1.3,0-2c0.4-0.2,0.5,0.3,0.7,0.5
			C6.6,55.5,7,55.1,7.4,55.6z"/>
		<path fill="#17ADDC" d="M41.2,12c-0.4-0.1-0.7,0.1-1-0.2c0-0.1-0.1-0.3,0-0.4c0.4-0.6,1-0.8,1.5-1.2c0.1,0.1,0.3,0.3,0.7,0.7
			C42.1,11.2,41.7,11.6,41.2,12z"/>
		<path fill="#17ADDC" d="M29.3,29.7c-0.3-0.3-0.6-0.6-0.9-0.9c0-0.2,0-0.4,0-0.7c0.3-0.2,0.7-0.2,1,0
			C29.9,28.6,29.9,28.8,29.3,29.7z"/>
		<path fill="#17ADDC" d="M47.6,59.5c-0.2-0.6,0.5-0.9,0.5-1.3c0.3,0,0.5,0,0.7,0c0.4,0.4,0,0.9,0.2,1.3
			C48.5,59.5,48.1,59.5,47.6,59.5z"/>
		<path fill="#17ADDC" d="M38.9,11.1c0.3,0.3,0.4,0.4,0.7,0.8c-0.9-0.2-1.2,1.4-2.2,0.6C37.5,11.5,38.4,11.6,38.9,11.1z"/>
		<path fill="#17ADDC" d="M8.7,61.5c-0.2-0.2-0.5-0.3-0.7-0.5c0.1-0.6,0.6-0.8,0.9-1.2c0.2,0.2,0.4,0.4,0.5,0.5
			C9.5,61,8.9,61.2,8.7,61.5z"/>
		<path fill="#17ADDC" d="M18.3,60.7c-0.2,0.1-0.2,0.2-0.4,0.3c-0.4-0.3-1-0.6-1.1-1.5C17.7,59.5,17.9,60.1,18.3,60.7z"/>
		<path fill="#17ADDC" d="M61.6,28.5c0.8-0.3,1.1,0.4,1.7,0.4c-0.1,0.7-0.5,0.5-0.9,0.6C62.2,29.2,61.9,28.8,61.6,28.5z"/>
		<path fill="#17ADDC" d="M29,2.7c-0.7,0.3-1.1,0-1.3-0.3c0.2-0.2,0.3-0.5,0.4-0.7C28.7,1.9,29,2.1,29,2.7z"/>
		<path fill="#17ADDC" d="M23.4,62.5c0.4-0.2,0.9-0.4,1.4-0.6C24.6,63,24.6,63,23.4,62.5z"/>
		<path fill="#17ADDC" d="M29.4,27.2c-0.3,0.2-0.7,0.2-0.9,0.5c-0.2-0.3-0.6-0.4-0.5-0.9C28.5,26.5,28.9,26.6,29.4,27.2z"/>
		<path fill="#17ADDC" d="M20,62.5c-0.3,0.3-0.6,0.2-0.9,0.2c-0.3-0.3-0.3-0.7,0-1.1C19.6,61.6,19.8,62,20,62.5z"/>
		<path fill="#17ADDC" d="M55,21.3c0-0.1,0-0.3,0-0.5c0.6,0,1.1,0,1.6,0C56.1,21,55.7,21.7,55,21.3z"/>
		<path fill="#17ADDC" d="M40.9,60.5c0.8,0.1,1,0.4,1.1,1.1C41.3,61.6,41,61.4,40.9,60.5z"/>
		<path fill="#17ADDC" d="M62.9,26.9c0,0.4,0,0.5,0,0.7c-0.3,0.3-0.6,0-1,0.2C61.9,26.6,62.6,27.2,62.9,26.9z"/>
		<path fill="#17ADDC" d="M29.7,8.4c-0.2,0.5-0.6,0.8-1,1C28.8,8.7,28.9,8.5,29.7,8.4z"/>
		<path fill="#17ADDC" d="M32.2,55.3c0-0.3,0-0.4,0-0.6c0.2,0,0.3-0.1,0.5-0.1C33,55.1,33,55.4,32.2,55.3z"/>
		<path fill="#17ADDC" d="M11.7,55.3c-0.5,0.1-0.6-0.2-0.5-0.5c0.2-0.3,0.3-0.2,0.5-0.2C12,54.9,12,55.1,11.7,55.3z"/>
		<path fill="#17ADDC" d="M15,41.2c0-0.5,0.1-0.6,0.6-0.5c0.2,0.1,0.1,0.3,0.1,0.5C15.5,41.4,15.3,41.4,15,41.2z"/>
		<path fill="#17ADDC" d="M55.2,9.1c-0.7,0-0.9,0-1.2,0c-0.2-0.1-0.2-0.3,0-0.6C54.3,8.6,54.6,8.8,55.2,9.1z"/>
		<path fill="#17ADDC" d="M12.6,47c0-0.3,0-0.5,0-0.8c0.3,0.2,0.5,0.3,0.6,0.7C13.1,46.9,12.9,46.9,12.6,47z"/>
		<path fill="#17ADDC" d="M38.9,26.1c-0.5-0.3-0.4-0.6-0.3-0.8C39,25.4,38.8,25.7,38.9,26.1z"/>
		<path fill="#17ADDC" d="M21.8,16.4c-0.3,0.5-0.6,0.4-0.8,0.3C21.1,16.3,21.5,16.5,21.8,16.4z"/>
		<path fill="#17ADDC" d="M30.1,8.1c0,0.2-0.1,0.4-0.3,0.3C29.7,8.2,29.8,8.1,30.1,8.1z"/>
		<path fill="#17ADDC" d="M15.7,21.7c0,0.2,0,0.3-0.2,0.3c0,0-0.1-0.1-0.1-0.1C15.5,21.8,15.6,21.7,15.7,21.7z"/>
	</g>
</g>
<g>
</g>
<g>
</g>
<g>
</g>
<g>
</g>
<g>
</g>
<g>
</g>
<g>
</g>
<g>
</g>
<g>
</g>
<g>
</g>
<g>
</g>
<g>
</g>
<g>
</g>
<g>
</g>
<g>
</g>
</svg>
