<?xml version="1.0" encoding="utf-8"?>
<!-- Generator: Adobe Illustrator 22.0.1, SVG Export Plug-In . SVG Version: 6.00 Build 0)  -->
<svg version="1.2" baseProfile="tiny" id="ISCTE-IUL"
	 xmlns="http://www.w3.org/2000/svg" xmlns:xlink="http://www.w3.org/1999/xlink" x="0px" y="0px" viewBox="0 0 300 69"
	 xml:space="preserve">
<g>
	<path fill="#065683" d="M0,52.8h3.1v13.6H0V52.8z"/>
	<path fill="#065683" d="M5.7,56h2.6l0.1,0.9c0.8-0.7,1.7-1.1,2.8-1.1h1.3c1.8,0,2.6,0.8,2.6,2.3v8.2h-2.7v-7.5c0-0.5-0.3-0.8-1-0.8
		h-1.1c-0.7,0-1.3,0.1-1.8,0.2v8.1H5.7V56z"/>
	<path fill="#065683" d="M17.2,58.4c0-0.8,0.3-1.4,0.8-1.9c0.5-0.5,1.3-0.7,2.3-0.7H23c0.9,0,1.6,0.2,2.2,0.5v1.6h-4.6
		c-0.4,0-0.6,0.1-0.7,0.2c-0.1,0.1-0.2,0.3-0.2,0.6v0.6c0,0.2,0,0.3,0.1,0.4c0.1,0.1,0.2,0.2,0.2,0.2c0.1,0,0.2,0.1,0.4,0.1l2.7,0.3
		c0.8,0.1,1.5,0.3,1.9,0.6c0.4,0.4,0.6,0.9,0.6,1.7v1.4c0,0.8-0.3,1.5-0.8,2c-0.6,0.5-1.3,0.7-2.2,0.7h-3.2c-0.9,0-1.7-0.2-2.2-0.5
		v-1.6h4.8c0.4,0,0.7-0.1,0.8-0.2c0.1-0.1,0.2-0.3,0.2-0.6V63c0-0.3-0.1-0.4-0.2-0.5c-0.1-0.1-0.3-0.1-0.6-0.2l-2.7-0.3
		c-1.6-0.2-2.4-0.9-2.4-2.2L17.2,58.4L17.2,58.4L17.2,58.4z"/>
	<path fill="#065683" d="M27,56.2h1.6v-2.7l2.7-0.3v3h3v1.9h-3v5.3c0,0.2,0,0.4,0,0.5c0,0.1,0.1,0.2,0.2,0.3
		c0.1,0.1,0.3,0.2,0.5,0.2h2.1v1.8c-0.7,0.3-1.5,0.4-2.5,0.4c-0.9,0-1.7-0.2-2.2-0.5s-0.8-0.9-0.8-1.8v-6.1H27L27,56.2L27,56.2z"/>
	<path fill="#065683" d="M36,51.9h2.7v2.6H36V51.9z M36,56h2.7v10.3H36V56z"/>
	<path fill="#065683" d="M40.5,56.2h1.6v-2.7l2.7-0.3v3h3v1.9h-3v5.3c0,0.2,0,0.4,0,0.5c0,0.1,0.1,0.2,0.2,0.3
		c0.1,0.1,0.3,0.2,0.5,0.2h2.1v1.8c-0.7,0.3-1.5,0.4-2.5,0.4c-0.9,0-1.7-0.2-2.2-0.5c-0.5-0.3-0.8-0.9-0.8-1.8v-6.1h-1.6L40.5,56.2
		L40.5,56.2z"/>
	<path fill="#065683" d="M49.4,56h2.7v7.5c0,0.5,0.3,0.8,1,0.8h1.1c0.7,0,1.3-0.1,1.8-0.2V56h2.7v10.3h-2.5l-0.1-0.9
		c-0.8,0.8-1.7,1.1-2.8,1.1h-1.3c-1.8,0-2.7-0.8-2.7-2.3L49.4,56L49.4,56z"/>
	<path fill="#065683" d="M60.6,56.2h1.6v-2.7l2.7-0.3v3h3v1.9h-3v5.3c0,0.2,0,0.4,0,0.5c0,0.1,0.1,0.2,0.2,0.3
		c0.1,0.1,0.3,0.2,0.5,0.2h2.1v1.8c-0.7,0.3-1.5,0.4-2.5,0.4c-0.9,0-1.7-0.2-2.2-0.5s-0.8-0.9-0.8-1.8v-6.1h-1.6L60.6,56.2
		L60.6,56.2z"/>
	<path fill="#065683" d="M69.3,59.1c0-1.1,0.3-1.9,1-2.4c0.7-0.5,1.6-0.8,2.7-0.8h2.4c1.1,0,2,0.3,2.6,0.8c0.7,0.6,1,1.4,1,2.5v4
		c0,2.3-1.2,3.4-3.6,3.4h-2.3c-2.5,0-3.7-1.1-3.7-3.4L69.3,59.1L69.3,59.1z M73.4,64.6H75c0.4,0,0.7-0.1,0.9-0.4
		c0.2-0.2,0.3-0.6,0.3-0.9v-4.2c0-0.9-0.4-1.3-1.2-1.3h-1.6c-0.8,0-1.3,0.4-1.3,1.3v4.2C72.1,64.2,72.6,64.6,73.4,64.6z"/>
	<path fill="#065683" d="M85.7,52.8h3.1v9.7c0,1.2,0.6,1.8,1.7,1.8h2.2c1.1,0,1.7-0.6,1.7-1.8v-9.7h2.9v9.9c0,1.4-0.4,2.4-1.1,3
		c-0.7,0.6-1.8,0.9-3.2,0.9h-3.1c-1.4,0-2.4-0.3-3.1-0.9c-0.7-0.6-1-1.6-1-3L85.7,52.8L85.7,52.8z"/>
	<path fill="#065683" d="M99.8,56h2.6l0.1,0.9c0.8-0.7,1.7-1.1,2.8-1.1h1.3c1.8,0,2.6,0.8,2.6,2.3v8.2h-2.7v-7.5
		c0-0.5-0.3-0.8-1-0.8h-1.1c-0.7,0-1.3,0.1-1.8,0.2v8.1h-2.7L99.8,56L99.8,56L99.8,56z"/>
	<path fill="#065683" d="M111.7,51.9h2.7v2.6h-2.7V51.9z M111.7,56h2.7v10.3h-2.7V56z"/>
	<path fill="#065683" d="M118.8,56l2.2,7.2l0.2,0.8h0.1l0.2-0.8l2.3-7.2h2.5l-3.6,10.4h-3L116,56H118.8z"/>
	<path fill="#065683" d="M127.5,59.2c0-2.3,1.3-3.4,4-3.4h1.6c1.2,0,2.1,0.2,2.8,0.7c0.7,0.4,1,1.3,1,2.4v2.8L135,62h-4.7v1.2
		c0,0.5,0.1,0.8,0.4,1c0.3,0.2,0.6,0.3,1.2,0.3h4.8V66c-0.6,0.4-1.4,0.6-2.4,0.6h-3c-2.5,0-3.8-1.1-3.8-3.4V59.2z M134.3,60.1v-1.2
		c0-0.5-0.1-0.8-0.3-1c-0.2-0.2-0.6-0.3-1.1-0.3h-1.2c-0.5,0-0.9,0.1-1.1,0.3c-0.2,0.2-0.3,0.5-0.3,1v1.1L134.3,60.1L134.3,60.1z"/>
	<path fill="#065683" d="M139.2,56h2.5l0.1,0.9c0.8-0.7,1.7-1.1,2.9-1.1c0.5,0,0.9,0,1.3,0.1v2.3h-1.3c-1.1,0-2,0.1-2.8,0.4v7.7
		h-2.7L139.2,56L139.2,56z"/>
	<path fill="#065683" d="M147.3,58.4c0-0.8,0.3-1.4,0.8-1.9c0.5-0.5,1.3-0.7,2.3-0.7h2.7c0.9,0,1.6,0.2,2.2,0.5v1.6h-4.6
		c-0.4,0-0.6,0.1-0.7,0.2c-0.1,0.1-0.2,0.3-0.2,0.6v0.6c0,0.2,0,0.3,0.1,0.4c0.1,0.1,0.2,0.2,0.2,0.2c0.1,0,0.2,0.1,0.4,0.1l2.7,0.3
		c0.8,0.1,1.5,0.3,1.9,0.6c0.4,0.4,0.6,0.9,0.6,1.7v1.4c0,0.8-0.3,1.5-0.8,2c-0.6,0.5-1.3,0.7-2.2,0.7h-3.2c-0.9,0-1.7-0.2-2.2-0.5
		v-1.6h4.8c0.4,0,0.7-0.1,0.8-0.2c0.1-0.1,0.2-0.3,0.2-0.6V63c0-0.3-0.1-0.4-0.2-0.5c-0.1-0.1-0.3-0.1-0.6-0.2l-2.7-0.3
		c-1.6-0.2-2.4-0.9-2.4-2.2L147.3,58.4L147.3,58.4z"/>
	<path fill="#065683" d="M158,51.9h2.7v2.6H158V51.9z M158,56h2.7v10.3H158V56z"/>
	<path fill="#065683" d="M162.5,56.2h1.6v-2.7l2.7-0.3v3h3v1.9h-3v5.3c0,0.2,0,0.4,0,0.5c0,0.1,0.1,0.2,0.2,0.3
		c0.1,0.1,0.3,0.2,0.5,0.2h2.1v1.8c-0.7,0.3-1.5,0.4-2.5,0.4c-0.9,0-1.7-0.2-2.2-0.5s-0.8-0.9-0.8-1.8v-6.1h-1.6V56.2z"/>
	<path fill="#065683" d="M171,62.9c0-0.9,0.3-1.6,0.8-2.1c0.5-0.5,1.3-0.7,2.2-0.7h3.4v-1.2c0-0.4-0.1-0.6-0.3-0.8
		c-0.2-0.1-0.5-0.2-0.9-0.2h-4.5v-1.7c0.6-0.3,1.5-0.5,2.7-0.5h2.6c1,0,1.7,0.2,2.3,0.7c0.6,0.4,0.8,1.1,0.8,2.1V63
		c0,1.1,0.1,2.2,0.2,3.4h-2.5c-0.1-0.3-0.1-0.7-0.2-1h0c-0.5,0.8-1.3,1.3-2.3,1.3h-1.6c-0.9,0-1.5-0.2-2-0.7
		c-0.5-0.5-0.7-1.1-0.7-1.8V62.9z M174.8,64.7h1.2c0.9,0,1.4-0.5,1.4-1.4v-1.6h-2.6c-0.8,0-1.1,0.3-1.1,1v1
		C173.7,64.4,174.1,64.7,174.8,64.7z M176.7,51.3l2.5,0.6l-2.9,2.9h-1.9L176.7,51.3z"/>
	<path fill="#065683" d="M182.8,56h2.5l0.1,0.9c0.8-0.7,1.7-1.1,2.9-1.1c0.5,0,0.9,0,1.3,0.1v2.3h-1.3c-1.1,0-2,0.1-2.8,0.4v7.7
		h-2.7L182.8,56L182.8,56z"/>
	<path fill="#065683" d="M191.3,51.9h2.7v2.6h-2.7V51.9z M191.3,56h2.7v10.3h-2.7V56z"/>
	<path fill="#065683" d="M196.5,59.1c0-1.1,0.3-1.9,1-2.4c0.7-0.5,1.6-0.8,2.7-0.8h2.4c1.1,0,2,0.3,2.6,0.8c0.7,0.6,1,1.4,1,2.5v4
		c0,2.3-1.2,3.4-3.6,3.4h-2.3c-2.5,0-3.7-1.1-3.7-3.4V59.1L196.5,59.1z M200.5,64.6h1.6c0.4,0,0.7-0.1,0.9-0.4
		c0.2-0.2,0.3-0.6,0.3-0.9v-4.2c0-0.9-0.4-1.3-1.2-1.3h-1.6c-0.8,0-1.3,0.4-1.3,1.3v4.2C199.3,64.2,199.7,64.6,200.5,64.6z"/>
	<path fill="#065683" d="M212.7,58.7c0-0.9,0.3-1.6,0.8-2.1c0.6-0.5,1.3-0.7,2.2-0.7h1.4c1,0,1.7,0.3,2.2,0.8V52h2.7v14.4h-2.5
		l-0.2-0.9c-0.7,0.8-1.6,1.1-2.6,1.1h-1.6c-0.8,0-1.4-0.2-1.9-0.6c-0.5-0.4-0.7-1-0.7-1.8L212.7,58.7L212.7,58.7z M215.7,64.3
		c0.2,0.1,0.5,0.2,0.8,0.2h0.9c0.6,0,1.2-0.1,1.9-0.3v-5.9c-0.5-0.3-1.2-0.5-2-0.5h-0.9c-0.4,0-0.6,0.1-0.8,0.3
		c-0.2,0.2-0.3,0.5-0.3,0.9v4.4C215.4,63.9,215.5,64.2,215.7,64.3z"/>
	<path fill="#065683" d="M224.4,59.2c0-2.3,1.3-3.4,4-3.4h1.6c1.2,0,2.1,0.2,2.8,0.7c0.7,0.4,1,1.3,1,2.4v2.8l-1.9,0.3h-4.7v1.2
		c0,0.5,0.1,0.8,0.4,1c0.2,0.2,0.6,0.3,1.2,0.3h4.8V66c-0.6,0.4-1.4,0.6-2.4,0.6h-3c-2.5,0-3.8-1.1-3.8-3.4L224.4,59.2L224.4,59.2z
		 M231.2,60.1v-1.2c0-0.5-0.1-0.8-0.3-1c-0.2-0.2-0.6-0.3-1.1-0.3h-1.2c-0.5,0-0.9,0.1-1.1,0.3c-0.2,0.2-0.3,0.5-0.3,1v1.1
		L231.2,60.1L231.2,60.1z"/>
	<path fill="#065683" d="M240.4,52.8h3.1v11.4h6.7v2.2h-9.8L240.4,52.8L240.4,52.8z"/>
	<path fill="#065683" d="M252,51.9h2.7v2.6H252V51.9z M252,56h2.7v10.3H252V56z"/>
	<path fill="#065683" d="M256.9,58.4c0-0.8,0.3-1.4,0.8-1.9c0.5-0.5,1.3-0.7,2.3-0.7h2.7c0.9,0,1.6,0.2,2.2,0.5v1.6h-4.6
		c-0.4,0-0.6,0.1-0.7,0.2c-0.1,0.1-0.2,0.3-0.2,0.6v0.6c0,0.2,0,0.3,0.1,0.4c0.1,0.1,0.2,0.2,0.2,0.2c0.1,0,0.2,0.1,0.4,0.1l2.7,0.3
		c0.8,0.1,1.5,0.3,1.9,0.6c0.4,0.4,0.6,0.9,0.6,1.7v1.4c0,0.8-0.3,1.5-0.8,2c-0.6,0.5-1.3,0.7-2.2,0.7h-3.2c-0.9,0-1.7-0.2-2.2-0.5
		v-1.6h4.8c0.4,0,0.7-0.1,0.8-0.2c0.1-0.1,0.2-0.3,0.2-0.6V63c0-0.3-0.1-0.4-0.2-0.5s-0.3-0.1-0.6-0.2l-2.7-0.3
		c-1.6-0.2-2.4-0.9-2.4-2.2L256.9,58.4L256.9,58.4L256.9,58.4z"/>
	<path fill="#065683" d="M267.5,52h2.7v4.8c0.3-0.3,0.7-0.6,1.2-0.7c0.5-0.2,0.9-0.3,1.4-0.3h1.4c1.8,0,2.6,0.8,2.6,2.4v5.5
		c0,1-0.3,1.7-0.9,2.2c-0.6,0.5-1.4,0.7-2.3,0.7h-1c-1,0-1.9-0.4-2.5-1l-0.3,0.8h-2.4L267.5,52L267.5,52z M272.2,64.5h0.9
		c0.4,0,0.7-0.1,0.8-0.3s0.2-0.5,0.2-0.9v-4.5c0-0.4-0.1-0.6-0.3-0.8c-0.2-0.2-0.5-0.2-0.9-0.2h-1c-0.6,0-1.1,0.1-1.7,0.3v5.9
		C270.8,64.4,271.4,64.5,272.2,64.5z"/>
	<path fill="#065683" d="M279,59.1c0-1.1,0.3-1.9,1-2.4s1.6-0.8,2.7-0.8h2.4c1.1,0,2,0.3,2.6,0.8c0.7,0.6,1,1.4,1,2.5v4
		c0,2.3-1.2,3.4-3.6,3.4h-2.3c-2.5,0-3.7-1.1-3.7-3.4L279,59.1L279,59.1z M283.1,64.6h1.6c0.4,0,0.7-0.1,0.9-0.4
		c0.2-0.2,0.3-0.6,0.3-0.9v-4.2c0-0.9-0.4-1.3-1.2-1.3h-1.6c-0.8,0-1.3,0.4-1.3,1.3v4.2C281.8,64.2,282.2,64.6,283.1,64.6z"/>
	<path fill="#065683" d="M290.6,62.9c0-0.9,0.3-1.6,0.8-2.1c0.5-0.5,1.3-0.7,2.2-0.7h3.4v-1.2c0-0.4-0.1-0.6-0.3-0.8
		c-0.2-0.1-0.5-0.2-0.9-0.2h-4.5v-1.7c0.6-0.3,1.5-0.5,2.7-0.5h2.6c1,0,1.7,0.2,2.3,0.7c0.6,0.4,0.8,1.1,0.8,2.1V63
		c0,1.1,0.1,2.2,0.2,3.4h-2.5c-0.1-0.3-0.1-0.7-0.2-1h0c-0.5,0.8-1.3,1.3-2.3,1.3h-1.6c-0.9,0-1.5-0.2-2-0.7s-0.7-1.1-0.7-1.8
		L290.6,62.9L290.6,62.9z M294.4,64.7h1.2c0.9,0,1.4-0.5,1.4-1.4v-1.6h-2.6c-0.8,0-1.1,0.3-1.1,1v1
		C293.3,64.4,293.7,64.7,294.4,64.7z"/>
	<path fill="#065683" d="M29.5,8.3h7.1v31.6h-7.1L29.5,8.3L29.5,8.3z"/>
	<path fill="#065683" d="M40.1,35.1h15.4c1.7,0,2.5-0.7,2.5-2.1V30c0-0.8-0.2-1.5-0.7-1.8c-0.4-0.4-1.2-0.6-2.4-0.8l-7.5-1
		c-2.6-0.4-4.4-1-5.5-1.9c-1.1-0.9-1.7-2.4-1.7-4.5v-5.2c0-4.7,2.8-7.1,8.3-7.1h8.8c2.8,0,4.7,0.5,5.9,1.5v3.9H49.2
		c-1,0-1.7,0.2-2.1,0.6c-0.4,0.4-0.6,1-0.6,1.8v2.6c0,0.6,0.2,1,0.5,1.3s0.7,0.6,1.1,0.7c0.4,0.1,0.9,0.2,1.6,0.3l8,1.1
		c2.4,0.3,4.1,0.9,5.2,1.9c1,1,1.6,2.6,1.6,4.7v5.5c0,2.3-0.6,4.1-1.8,5.2c-1.2,1.1-3.1,1.6-5.6,1.6H46.4c-3.1,0-5.3-0.6-6.4-1.7
		L40.1,35.1L40.1,35.1z"/>
	<path fill="#065683" d="M67.5,17.3c0-3.3,0.8-5.7,2.4-7.2s4.1-2.3,7.4-2.3h7.8c2.6,0,4.6,0.4,6,1.1v4.5H78.6
		c-1.7,0-2.8,0.4-3.3,1.2c-0.6,0.8-0.9,2-0.9,3.7V30c0,1.7,0.3,2.9,0.9,3.7c0.6,0.8,1.7,1.2,3.3,1.2h12.7v4.1
		c-1.4,1-3.4,1.5-6.2,1.5h-7.7c-3.3,0-5.8-0.8-7.4-2.4s-2.4-4-2.4-7.3V17.3z"/>
	<path fill="#065683" d="M93.5,8.3h27.3v5.2h-10.1v26.4h-7.1V13.4H93.6L93.5,8.3L93.5,8.3z"/>
	<path fill="#065683" d="M123.8,8.3h22.7v5.2h-15.6v7.6h12v5.1h-12v8.6h15.6v5.2h-22.7V8.3z"/>
	<path fill="#065683" d="M205.6,8.3h7.1v31.6h-7.1V8.3z"/>
	<path fill="#065683" d="M216.7,8.3h7.1v22.4c0,2.8,1.3,4.2,4,4.3h5.2c2.7,0,4-1.4,4-4.3V8.3h6.6v23c0,3.2-0.8,5.5-2.5,7
		c-1.7,1.5-4.2,2.2-7.4,2.2h-7.3c-3.2,0-5.6-0.7-7.2-2.1c-1.6-1.4-2.4-3.7-2.4-7L216.7,8.3L216.7,8.3z"/>
	<path fill="#065683" d="M247.7,8.3h7.1v26.4h15.6v5.2h-22.7V8.3z"/>
	<path fill="#065683" d="M179.1,2.4c0.2,0,0.4,0,0.5,0.2c0.5,0.4,1.1,0.9,1.6,1.3c0.7,0.7,1.4,0.7,2.3,0.9c0.9,0.2,2,0.4,2.9,0.5
		c0.4,0.2,0.7,0.4,0.9,0.5c-1.1-0.4-2.3-0.5-3.7-0.7c-0.7,0-0.9,0.2-0.4,0.7c0.7,0.9,1.3,1.8,1.8,2.7c2,3.4,2.3,4.4,5.7,6.4
		c1.3,0.9,2.3,1.6,3.4,2.7c0.4-2.5,0.2-3.6,0.2-4.4c0.2,0.2,0.4,0.7,0.4,0.9c0.2,1.1,0,2-0.2,3.9c0.9,0.9,1.8,2.1,2.5,3.2
		c0,0.2,0,0.4,0,0.5c-0.7-1.1-1.6-2.3-2.7-3.2c-0.5,2.3-1.4,3.9-0.5,6.2c1.1,3.4,1.3,6.8,0.7,10c-0.2,0.4-0.4,0.5-0.5,0.9
		c0.7-4.4,0.4-7.5-0.7-10.5c-0.5-1.6-1.8,0.4-2.5,1.3c-2.5,3.2-3.6,5.2,0.7,7.8c0.9,0.5,1.8,1.1,2.5,1.6c0,0.2-0.2,0.2-0.2,0.4
		c-0.9-0.5-1.8-0.9-2.7-1.4c-4.6-2.7-6-0.4-9.4,3.9c-0.7,0.9-1.4,1.6-2.3,2.5c-2.1,2-1.3,2.3,1.3,2.1c2.7,0,5.3-0.5,8.2-1.8
		c-0.2,0.2-0.5,0.4-0.7,0.5c-2.7,1.1-5.3,1.6-7.7,1.8c-3.7,0.2-1.3,1.3,1.1,1.6c-0.2,0-0.4,0.2-0.5,0.2c-4.8-1.3-5.2-1.1-10.3,0.2
		c-0.2,0-0.4,0-0.5-0.2c3.9-1.1,5.5-1.6,1.4-3.4c-2.7-1.1-5-2.9-7.1-4.8c-0.5-0.5-1.3-1.3-1.8-1.8c-0.4,0-0.5-0.2-0.9-0.4
		c-1.8-0.7-2.7-0.9-1.8,1.3c0.7,2,1.8,4.3,3,5.5c-0.4-0.4-0.7-0.5-1.1-0.9c-1.1-1.4-2-3.2-2.5-4.8c-0.7-3-2.5-3.9-4.3-6
		c0-0.2-0.2-0.4-0.2-0.7c0.5,0.7,1.1,1.3,1.8,1.8c1.8,1.4,1.8,0.7,1.6-1.3c0-0.7-0.2-1.4-0.2-2.1c-0.2-0.4-0.4-0.7-0.5-1.1
		c-0.7-1.8-1.3-3.7-1.4-5.9c-0.2-1.1-0.4-1.3-0.7-0.4c-0.7,1.3-1.1,2.7-1.3,4.1c0-0.4,0-0.5,0-0.9c0-0.2,0-0.4,0-0.5
		c0.2-1.3,0.5-2.3,1.3-3.7c0.5-0.7,0.5-1.1,0.5-2c0.2-1.3,0.2-2.3,0.5-3.6c0.2-0.2,0.4-0.5,0.5-0.9c-0.4,1.3-0.4,2.5-0.5,3.6
		c0,0.9,0.2,1.1,0.7,0.5c2.1-2.7,3.4-4.4,1.8-6.9c0-0.2,0.2-0.2,0.2-0.4c2.9,1.4,4.4-0.4,6.2-2.9c0.4-0.4,0.2-0.9-0.5-0.7
		c-0.9,0.2-1.8,0.5-3,0.9c0.2-0.2,0.5-0.4,0.7-0.5c0.9-0.4,1.8-0.5,2.7-0.7c0.9-0.2,1.4-0.4,2.1-1.1c0.9-0.7,2-1.4,2.9-2.1
		c0.4,0,0.5-0.2,0.9-0.2c-1.3,0.7-2,1.3-2.9,2.1c-0.4,0.4-0.4,0.7,0.2,0.9c1.6,0,2.3,0,3.7,0.2c1.3,0.2,1.6,0.2,2.9-0.2
		c2-0.5,3.7-0.7,5.5-0.7c0.7,0,0.9-0.2,0.4-0.9C180.3,3.5,179.6,2.7,179.1,2.4 M166.1,7.2c-2.5,3.6,2.1,0.9,5.2-0.4
		c0.7-0.4,0.5-0.7-0.2-0.9c-0.9-0.2-1.3,0-2.1,0C167.7,6,166.8,6,166.1,7.2 M191.3,20.6c-0.7-1.3-1.3-2.3-2.1-3.6
		c-1.8-2.7-2.1-2.1-2,0.7c0.2,1.6,0.2,3.2,0,5c-0.4,4.8-0.4,6.6,3.6,1.8C191.7,23.7,192.4,22.3,191.3,20.6 M182.3,10
		c-2-1.4-4.3-2.5-6.8-3.2c-1.4-0.4-2.5-0.4-3.9,0.4c-4.4,2.1-5.5,4.1,1.3,3.7c3-0.2,5.2,0,8.5,0.5C183.7,12,184.9,12.2,182.3,10
		 M176.2,6.5c2.3,0.7,4.4,1.8,6.6,3.2c2,1.4,3.4,2.3,1.8-0.9c-0.5-1.1-1.3-2.1-2-3c-0.5-0.5-0.9-0.7-2.1-0.7
		c-1.4,0.2-2.9,0.2-4.3,0.5C175.3,5.8,175.3,6.3,176.2,6.5 M193.9,17.9c-6.2-5.2-4.1-1.4-2.1,2.3C193.1,22.5,193.7,18.9,193.9,17.9
		 M156.6,20.2c0.4,2.1,0.9,4.3,1.6,6.4v-0.2c-0.2-2.3,2.7-13.3-1.3-8.2C156.6,18.6,156.5,19.3,156.6,20.2 M181.2,12
		c-2.9-0.7-5-0.7-8-0.5c-11.6,0.9-3.4,7.7,2.3,11.7c4.3,3,10.7,8.7,11.4-0.9c0.2-1.4,0.2-3,0-4.4C186.6,14,184.9,12.9,181.2,12
		 M175.2,23.7c-5.7-4.4-15.1-11-11.2,2.7c0.5,2.1,1.8,4.3,3,6.2s2,2.7,3.7,2.7c2.5-0.2,5-0.7,7.3-1.4
		C186.7,30.9,178.9,26.8,175.2,23.7 M178.4,34.4c-2.3,0.7-4.8,1.4-7.1,1.6c-2,0.2-1.8,0.7-0.7,1.8c0.7,0.7,1.4,1.4,2.1,2.1
		c2.3,2,3.9,2.5,6.2,0.2c0.7-0.7,1.4-1.4,2-2.1C184.8,33,183.2,32.8,178.4,34.4 M162.2,34.4c-1.4-1.6-2.5-3.4-3.4-5.3
		c0,0.4,0,0.7,0.2,1.1c0.2,2.1,1.1,3.4,3,4.1C162,34.3,162,34.3,162.2,34.4 M166.4,35.9c-0.9-0.2-1.8-0.4-2.7-0.5
		c0.4,0.4,0.7,0.7,1.1,1.1c2,2,4.4,3.6,6.9,4.6c2.3,1.1,2.3,0.5,0.5-1.1c-0.9-0.7-1.6-1.4-2.3-2.3C168.6,36.4,168.2,36,166.4,35.9
		 M163.1,34.6c0.9,0.4,2,0.5,3,0.7c1.8,0.2,1.4-0.4,0.2-2.3c-1.6-2.7-2.7-5.2-3.6-8.2c-1.6-5.3-3-6-4.1,1.6c0,0.4,0,0.9,0,1.3
		C159.9,30.1,161.3,32.7,163.1,34.6"/>
</g>
</svg>
