<?xml version="1.0" encoding="utf-8"?>
<!-- Generator: Adobe Illustrator 22.0.1, SVG Export Plug-In . SVG Version: 6.00 Build 0)  -->
<svg version="1.2" baseProfile="tiny" id="Layer_1" xmlns="http://www.w3.org/2000/svg" xmlns:xlink="http://www.w3.org/1999/xlink"
	 x="0px" y="0px" viewBox="0 0 672 155.2" xml:space="preserve">
<path fill-rule="evenodd" fill="#009DE0" d="M0,0c0,0,0,25.6,0,65.1c0,58.7,64,90.1,64,90.1s64.3-31.4,64.3-90.1
	c0-39.6,0-65.1,0-65.1H0z M35.2,41h11.5l0,48.2H35.1L35.2,41z M69.8,28.2l0,73.8c0,9.6-7.8,14.5-17.3,14.5
	c-9.6,0-17.4-4.2-17.4-12.3h0c0-3.2,2.6-5.8,5.8-5.8c3.2,0,5.8,2.6,5.8,5.8h0c0,5.9,0.5,9.9,5.8,9.9c5.8,0,5.8-4,5.8-12.1l0-73.8
	c0-9.6,7.8-14.5,17.3-14.5c9.6,0,17.4,4.2,17.4,12.3h0c0,3.2-2.6,5.8-5.8,5.8c-3.2,0-5.8-2.6-5.8-5.8h0c0-5.9-0.5-9.9-5.8-9.9
	C69.8,16,69.8,20.1,69.8,28.2z M98.3,49H93v40.2H81.4V49h-5.3V41h22.2V49z"/>
<g>
	<path fill="#4C5256" d="M186.5,49.1h-13.6v-8h36.5v8h-13.6v40.1h-9.2V49.1z"/>
	<path fill="#4C5256" d="M215.6,41.1h29.9v8h-20.7v11.6h19.1v8h-19.1v12.4h20.7v8h-29.9V41.1z M225.8,33.1c3.4-2.1,6.8-4.2,9.8-6.4
		L239,32c-3.3,2.4-6,4-10,6L225.8,33.1z"/>
	<path fill="#4C5256" d="M252.9,54.3c0-8.8,5.2-13.9,17.4-13.9c4.5,0,9.2,0.6,13.3,1.6l-1,7.9c-4-0.7-8.6-1.2-12-1.2
		c-6.4,0-8.4,2.2-8.4,7.3v18.5c0,5.1,2.1,7.3,8.4,7.3c3.4,0,8-0.5,12-1.2l1,7.9c-4,1-8.7,1.6-13.3,1.6c-12.2,0-17.4-5.1-17.4-13.9
		V54.3z"/>
	<path fill="#4C5256" d="M300.3,52.7v36.5h-9V41.1h12.3l18.6,36.6V41.1h9v48.1h-12.3L300.3,52.7z"/>
	<path fill="#4C5256" d="M350.7,89.2h-9.2V41.1h9.2V89.2z"/>
	<path fill="#4C5256" d="M359.8,54.3c0-8.8,5.2-13.9,17.4-13.9c4.5,0,9.2,0.6,13.3,1.6l-1,7.9c-4-0.7-8.6-1.2-12-1.2
		c-6.4,0-8.4,2.2-8.4,7.3v18.5c0,5.1,2.1,7.3,8.4,7.3c3.4,0,8-0.5,12-1.2l1,7.9c-4,1-8.7,1.6-13.3,1.6c-12.2,0-17.4-5.1-17.4-13.9
		V54.3z"/>
	<path fill="#4C5256" d="M433,75.1c0,8-4.7,14.8-18.5,14.8c-13.8,0-18.5-6.8-18.5-14.8V55.2c0-8,4.7-14.8,18.5-14.8
		c13.8,0,18.5,6.8,18.5,14.8V75.1z M405.3,74.6c0,4.6,2.3,7.3,9.2,7.3c6.9,0,9.2-2.7,9.2-7.3V55.7c0-4.5-2.3-7.3-9.2-7.3
		c-6.9,0-9.2,2.7-9.2,7.3V74.6z"/>
	<path fill="#4C5256" d="M462.3,85.4h22v3.8h-26.3V41.1h4.3V85.4z"/>
	<path fill="#4C5256" d="M498.4,89.2h-4.3V41.1h4.3V89.2z"/>
	<path fill="#4C5256" d="M524.2,89.9c-4.3,0-9.6-0.7-13.8-2.3l0.8-3.5c4.4,1.3,8.9,2,13.1,2c8.4,0,10.6-2.5,10.6-8.6
		c0-7.4-0.1-8.2-10.9-10.7C512.3,64.1,511,62,511,52.4c0-7.9,2.9-12,15.2-12c4.3,0,9.3,0.7,12.6,1.7l-0.5,3.6
		c-3.6-0.8-8.1-1.4-12-1.4c-9.7,0-11,2.3-11,8.3c0,7.8,0.2,8.2,10.5,10.7c12.8,3.2,13.6,5,13.6,14.1
		C539.4,85.2,536.6,89.9,524.2,89.9z"/>
	<path fill="#4C5256" d="M551,89.2V41.1h18.3c6.6,0,10.5,3.1,10.5,9.5v5.8c0,3.8-1.6,6.4-5.6,7.8c3.8,0.5,7.1,3.6,7.1,9v6.3
		c0,6.6-4.9,9.8-11.2,9.8H551z M575.5,50c0-3.3-1.9-5.1-6.1-5.1h-14.1v17.8H568c5.4,0,7.6-2.7,7.6-6.6V50z M577.1,73.2
		c0-4-2.4-6.8-8.1-6.8h-13.6v19h14.9c4.6,0,6.8-2.2,6.8-6.1V73.2z"/>
	<path fill="#4C5256" d="M607.6,89.9c-12.5,0-17.1-6.1-17.1-14.3v-21c0-8.2,4.5-14.3,17.1-14.3c12.5,0,17.1,6.1,17.1,14.3v21
		C624.7,83.9,620.1,89.9,607.6,89.9z M620.3,75.5V54.8c0-6.9-3.4-10.6-12.8-10.6c-9.4,0-12.8,3.8-12.8,10.6v20.7
		c0,6.9,3.4,10.6,12.8,10.6C617,86.1,620.3,82.4,620.3,75.5z"/>
	<path fill="#4C5256" d="M663.1,76.6h-22.7l-4.5,12.6h-4.3l17-48.1h6.4l17,48.1h-4.3L663.1,76.6z M641.7,72.9h20.1l-10-29.3
		L641.7,72.9z"/>
</g>
<g>
</g>
<g>
</g>
<g>
</g>
<g>
</g>
<g>
</g>
<g>
</g>
</svg>
