<?xml version="1.0" encoding="utf-8"?>
<!-- Generator: Adobe Illustrator 22.0.1, SVG Export Plug-In . SVG Version: 6.00 Build 0)  -->
<svg version="1.2" baseProfile="tiny" id="Layer_1" xmlns="http://www.w3.org/2000/svg" xmlns:xlink="http://www.w3.org/1999/xlink"
	 x="0px" y="0px" viewBox="0 0 371 371" xml:space="preserve">
<path fill="#5382A1" d="M136.8,286.9c0,0-14.2,8.2,10.1,11c29.4,3.4,44.4,2.9,76.8-3.3c0,0,8.5,5.3,20.4,10
	C171.5,335.8,79.8,302.9,136.8,286.9"/>
<path fill="#5382A1" d="M128,246.3c0,0-15.9,11.8,8.4,14.3c31.4,3.2,56.2,3.5,99.1-4.8c0,0,5.9,6,15.3,9.3
	C162.9,290.8,65.1,267.2,128,246.3"/>
<path fill="#F8981D" d="M202.8,177.4c17.9,20.6-4.7,39.1-4.7,39.1s45.4-23.5,24.6-52.8c-19.5-27.4-34.4-41,46.5-87.9
	C269.1,75.8,142.1,107.5,202.8,177.4"/>
<path fill="#5382A1" d="M298.8,317c0,0,10.5,8.6-11.6,15.3c-41.9,12.7-174.5,16.5-211.3,0.5C62.7,327,87.5,319,95.3,317.4
	c8.1-1.8,12.8-1.4,12.8-1.4c-14.7-10.4-95.2,20.4-40.9,29.2C215.4,369.1,337.2,334.3,298.8,317"/>
<path fill="#5382A1" d="M143.6,204.2c0,0-67.4,16-23.9,21.8c18.4,2.5,55,1.9,89.2-1c27.9-2.4,55.9-7.4,55.9-7.4s-9.8,4.2-17,9.1
	c-68.5,18-200.8,9.6-162.7-8.8C117.5,202.5,143.6,204.2,143.6,204.2"/>
<path fill="#5382A1" d="M264.6,271.8c69.6-36.2,37.4-70.9,15-66.2c-5.5,1.1-8,2.1-8,2.1s2-3.2,5.9-4.6
	c44.4-15.6,78.6,46.1-14.3,70.5C263.2,273.7,264.3,272.7,264.6,271.8"/>
<path fill="#F8981D" d="M222.6,0c0,0,38.6,38.6-36.6,97.9c-60.2,47.6-13.7,74.7,0,105.7c-35.2-31.7-61-59.6-43.7-85.6
	C167.8,79.8,238.2,61.3,222.6,0"/>
<path fill="#5382A1" d="M150.5,369.8c66.8,4.3,169.4-2.4,171.8-34c0,0-4.7,12-55.2,21.5c-57,10.7-127.4,9.5-169.1,2.6
	C98,360,106.6,367,150.5,369.8"/>
</svg>
