<?xml version="1.0" encoding="utf-8"?>
<!-- Generator: Adobe Illustrator 22.0.1, SVG Export Plug-In . SVG Version: 6.00 Build 0)  -->
<svg version="1.2" baseProfile="tiny" id="Layer_1" xmlns="http://www.w3.org/2000/svg" xmlns:xlink="http://www.w3.org/1999/xlink"
	 x="0px" y="0px" viewBox="0 0 337.4 337.4" xml:space="preserve">
<polygon fill="#EFC725" points="47,303.6 20,0 317.5,0 290.4,303.6 168.4,337.4 "/>
<polygon fill="#FBDE34" points="168.4,311.2 266.9,283.9 290.1,24.5 168.4,24.5 "/>
<polygon fill="#EBEBEB" points="168.3,233.8 168.2,233.8 126.8,222.6 124,193 103.9,193 86.8,193 91.9,251.4 168.1,272.6 
	168.3,272.5 "/>
<polygon fill="#EBEBEB" points="173.3,174.3 173.3,137.1 127.5,137.1 132.9,78.6 173.4,77.6 173.3,38.8 99.2,38.8 96.4,66.3 
	87.8,164.3 86.8,174.3 96.8,174.3 "/>
<polygon fill="#FFFFFF" points="173.1,77.6 173.2,77.6 213.9,80 217.4,118.5 237.6,118.5 254.8,118.5 248.2,46.5 173.3,38.8 
	173.1,38.9 "/>
<polyline fill="#FFFFFF" points="250.9,77.7 247.8,38.8 169.1,38.8 169.1,63 169.1,77.6 169.1,77.7 250.9,77.7 "/>
<polygon fill="#FFFFFF" points="168.2,137.1 168.2,174.3 214.1,174.3 209.8,222.6 168.2,233.8 168.2,272.6 244.6,251.4 245.1,245.1 
	253.8,147.1 254.8,137.1 244.8,137.1 "/>
<path fill="#FFFFFF" d="M246.1,76.1"/>
<path fill="#FFFFFF" d="M245.6,76.1"/>
</svg>
