<?xml version="1.0" encoding="utf-8"?>
<!-- Generator: Adobe Illustrator 22.0.1, SVG Export Plug-In . SVG Version: 6.00 Build 0)  -->
<svg version="1.2" baseProfile="tiny" id="Layer_3" xmlns="http://www.w3.org/2000/svg" xmlns:xlink="http://www.w3.org/1999/xlink"
	 x="0px" y="0px" viewBox="0 0 553 553" xml:space="preserve">
<ellipse fill="#7484B6" cx="276.5" cy="276.5" rx="276.5" ry="145.4"/>
<ellipse fill="#7484B6" cx="276.5" cy="276.5" rx="265.7" ry="134.6"/>
<g>
	<path d="M161.5,235.2c12.1,0,20.1,2.2,24.1,6.7s5,12.1,2.9,22.9c-2.2,11.3-6.4,19.3-12.7,24.2c-6.3,4.8-15.8,7.2-28.6,7.2h-19.3
		l11.9-61L161.5,235.2L161.5,235.2z M84.1,357.9h31.7l7.5-38.8h27.2c12,0,21.9-1.3,29.6-3.8c7.8-2.5,14.8-6.7,21.1-12.7
		c5.3-4.9,9.6-10.3,12.9-16.2c3.3-5.9,5.6-12.4,7-19.5c3.4-17.3,0.8-30.7-7.6-40.4c-8.4-9.6-21.8-14.5-40.2-14.5h-61.1L84.1,357.9z"
		/>
	<path d="M244.6,173.4h31.5l-7.5,38.8h28.1c17.7,0,29.8,3.1,36.5,9.2c6.7,6.2,8.7,16.1,6,29.9L326,319.1h-32l12.5-64.5
		c1.4-7.3,0.9-12.3-1.6-15s-7.7-4-15.8-4H264l-16.2,83.5h-31.5L244.6,173.4z"/>
	<path d="M409.3,235.2c12.1,0,20.1,2.2,24.1,6.7s5,12.1,2.9,22.9c-2.2,11.3-6.4,19.3-12.7,24.2c-6.3,4.8-15.8,7.2-28.6,7.2h-19.3
		l11.9-61L409.3,235.2L409.3,235.2z M332,357.9h31.8l7.5-38.8h27.2c12,0,21.9-1.3,29.6-3.8c7.8-2.5,14.8-6.7,21.1-12.7
		c5.3-4.9,9.6-10.3,12.9-16.2c3.3-5.9,5.6-12.4,7-19.5c3.4-17.3,0.8-30.7-7.6-40.4c-8.4-9.6-21.8-14.5-40.2-14.5h-61.1L332,357.9z"
		/>
</g>
</svg>
