<?xml version="1.0" encoding="utf-8"?>
<!-- Generator: Adobe Illustrator 22.0.1, SVG Export Plug-In . SVG Version: 6.00 Build 0)  -->
<svg version="1.1" id="Camada_1" xmlns="http://www.w3.org/2000/svg" xmlns:xlink="http://www.w3.org/1999/xlink" x="0px" y="0px"
	 viewBox="0 0 39.6 39.6" style="enable-background:new 0 0 39.6 39.6;" xml:space="preserve">
<style type="text/css">
	.st0{fill:url(#SVGID_1_);}
</style>
<linearGradient id="SVGID_1_" gradientUnits="userSpaceOnUse" x1="-1226.7231" y1="799.0603" x2="-1226.7231" y2="798.0603" gradientTransform="matrix(39.6201 0 0 -35.5033 48622.6602 28371.3262)">
	<stop  offset="0" style="stop-color:#F88A36"/>
	<stop  offset="1" style="stop-color:#FD2020"/>
</linearGradient>
<path class="st0" d="M29.9,35.1c-4.7,2.7-11.1,3-17.5,0.2C7.1,33.1,2.8,29.2,0,24.7c1.3,1.1,2.9,2,4.6,2.8c6.7,3.1,13.3,2.9,18,0
	c0,0,0,0,0,0C15.9,22.4,10.2,15.7,6,10.3c-0.9-0.9-1.6-2-2.2-3C8.9,12,17,17.9,19.9,19.5C13.8,13.1,8.3,5.1,8.6,5.3
	c9.7,9.8,18.7,15.3,18.7,15.3c0.3,0.2,0.5,0.3,0.7,0.4c0.2-0.5,0.4-1,0.5-1.5c1.6-5.7-0.2-12.1-4.1-17.5c9,5.4,14.3,15.7,12.1,24.2
	c-0.1,0.2-0.1,0.5-0.2,0.7c0,0,0.1,0.1,0.1,0.1c4.4,5.6,3.2,11.5,2.7,10.3C36.6,32.7,32.2,34.1,29.9,35.1L29.9,35.1z"/>
</svg>
