<?xml version="1.0" encoding="utf-8"?>
<!-- Generator: Adobe Illustrator 22.0.1, SVG Export Plug-In . SVG Version: 6.00 Build 0)  -->
<svg version="1.2" baseProfile="tiny" id="Fixed" xmlns="http://www.w3.org/2000/svg" xmlns:xlink="http://www.w3.org/1999/xlink"
	 x="0px" y="0px" viewBox="0 0 198.1 198.1" xml:space="preserve">
<g>
	<path fill="#494741" d="M14.1,99c0,33.6,19.5,62.7,47.9,76.5l-40.5-111C16.7,75,14.1,86.7,14.1,99z"/>
	<path fill="#494741" d="M156.4,94.8c0-10.5-3.8-17.8-7-23.4c-4.3-7-8.3-12.9-8.3-19.9c0-7.8,5.9-15.1,14.3-15.1
		c0.4,0,0.7,0,1.1,0.1C141.3,22.5,121.2,14.1,99,14.1c-29.7,0-55.8,15.2-71,38.3c2,0.1,3.9,0.1,5.5,0.1c8.9,0,22.6-1.1,22.6-1.1
		c4.6-0.3,5.1,6.5,0.5,7c0,0-4.6,0.5-9.7,0.8l30.9,92l18.6-55.8L83.3,59.2c-4.6-0.3-8.9-0.8-8.9-0.8c-4.6-0.3-4-7.3,0.5-7
		c0,0,14,1.1,22.4,1.1c8.9,0,22.6-1.1,22.6-1.1c4.6-0.3,5.1,6.5,0.5,7c0,0-4.6,0.5-9.7,0.8l30.7,91.3l8.5-28.3
		C153.6,110.5,156.4,102,156.4,94.8z"/>
	<path fill="#494741" d="M100.5,106.5L75,180.5c7.6,2.2,15.7,3.5,24,3.5c9.9,0,19.4-1.7,28.2-4.8c-0.2-0.4-0.4-0.8-0.6-1.2
		L100.5,106.5z"/>
	<path fill="#494741" d="M173.6,58.3c0.4,2.7,0.6,5.6,0.6,8.7c0,8.6-1.6,18.3-6.5,30.4l-26,75C167,157.7,184,130.4,184,99
		C184,84.3,180.2,70.4,173.6,58.3z"/>
	<path fill="#494741" d="M99,0C44.4,0,0,44.4,0,99c0,54.6,44.4,99,99,99c54.6,0,99-44.4,99-99C198.1,44.4,153.7,0,99,0z M99,193.5
		c-52.1,0-94.5-42.4-94.5-94.5C4.5,46.9,46.9,4.5,99,4.5c52.1,0,94.5,42.4,94.5,94.5C193.5,151.1,151.1,193.5,99,193.5z"/>
</g>
<g>
</g>
<g>
</g>
<g>
</g>
<g>
</g>
<g>
</g>
<g>
</g>
</svg>
